<svg xmlns="http://www.w3.org/2000/svg" xmlns:xlink="http://www.w3.org/1999/xlink" xmlns:inkscape="http://www.inkscape.org/namespaces/inkscape" version="1.1" width="595.276" height="841.89" viewBox="0 0 595.276 841.89">
<defs>
<clipPath id="clip_1">
<path transform="matrix(1,0,0,-1,0,841.89)" d="M0 841.89H595.276V0H0Z"/>
</clipPath>
<clipPath id="clip_2">
<path transform="matrix(1,0,0,-1,0,841.89)" d="M473.152 464.45C473.152 461.927 472.087 460.099 469.956 458.983 467.825 457.866 464.441 457.316 459.804 457.316H368.018 364.676 343.825C342.629 457.316 341.5 456.888 340.769 456.154L321.74 437.098C319.776 435.13 321.586 432.275 324.796 432.275H368.018 368.021 456.796C466.322 432.275 474.489 433.003 481.319 434.458 488.15 435.914 493.77 438.001 498.156 440.719 500.159 441.959 501.881 443.349 503.389 444.853 501.444 460.535 484.565 465.379 472.7 466.83 472.969 466.118 473.152 465.347 473.152 464.45"/>
</clipPath>
<clipPath id="clip_3">
<path transform="matrix(1,0,0,-1,0,841.89)" d="M0 841.89H595.276V0H0Z"/>
</clipPath>
<clipPath id="clip_4">
<path transform="matrix(1,0,0,-1,0,841.89)" d="M0 841.89H595.276V0H0Z"/>
</clipPath>
</defs>
<g inkscape:groupmode="layer" inkscape:label="Layer 1">
<path transform="matrix(1,0,0,-1,0,841.89)" d="M13.431 406.835H580.787V404.477H13.431Z" fill="#eb8d4b"/>
<g clip-path="url(#clip_1)">
<path transform="matrix(1,0,0,-1,101.8105,384.57304)" d="M0 0C7.393 0 13.63 .338 18.705 1.019 23.782 1.697 27.854 2.813 30.925 4.367 33.996 5.918 36.189 7.908 37.505 10.336 38.822 12.762 39.48 15.724 39.48 19.218V72.359H78.583V19.218C78.583-10.291 52.387-25.042 0-25.042H-47L-21.62 0Z" fill="#eb8d4b"/>
<path transform="matrix(1,0,0,-1,420.3135,312.2141)" d="M0 0H-22.936-154.578-233.496V-41.75C-230.665-37.801-227.119-34.524-222.868-31.939-213.184-26.052-202.022-25.125-194.392-25.366V-25.333H-112.988-76.453 0 61.288L86.292 0Z" fill="#01608a"/>
<path transform="matrix(1,0,0,-1,287.6172,384.57353)" d="M0 0H-60.933V13.249H16.335L38.707 35.379H-60.933V41.85C-67.597 42.076-77.477 41.332-85.77 36.269-92.747 32.03-97.509 25.446-100.037 16.662V-25.042H0 21.035L46.039 0Z" fill="#01608a"/>
<path transform="matrix(1,0,0,-1,498.7197,357.72)" d="M0 0C-8.021 4.417-19.739 6.633-35.156 6.633H-103.588C-108.1 6.633-111.463 7.15-113.656 8.153-115.85 9.172-116.936 10.952-116.936 13.476-116.936 14.252-116.831 14.964-116.602 15.595H-154.536V15.223C-154.536 11.049-153.596 7.231-151.716 3.786-149.836 .34-146.953-2.588-143.067-5.015-139.183-7.441-134.294-9.334-128.403-10.693-122.513-12.052-115.494-12.731-107.348-12.731H-38.916C-38.573-12.731-38.287-12.755-37.959-12.761L-37.961-12.736C-37.537-12.721 .943-11.317 8.716-33.917 8.811-33.742 8.935-33.583 9.024-33.405 11.029-29.426 12.032-24.961 12.032-20.011 12.032-11.081 8.021-4.416 0 0" fill="#01608a"/>
<path transform="matrix(1,0,0,-1,472.7002,375.0598)" d="M0 0C.269-.712 .452-1.483 .452-2.38 .452-4.903-.613-6.731-2.744-7.848-4.875-8.964-8.259-9.514-12.896-9.514H-104.682-108.024-128.875C-130.071-9.514-131.2-9.943-131.932-10.676L-150.96-29.733C-152.924-31.7-151.114-34.556-147.903-34.556H-104.682-104.68-15.904C-6.379-34.556 1.789-33.828 8.619-32.372 15.45-30.916 21.069-28.829 25.456-26.111 27.459-24.871 29.182-23.481 30.688-21.977 28.744-6.294 11.865-1.451 0 0" fill="#01608a"/>
</g>
<g clip-path="url(#clip_2)">
<path transform="matrix(1,0,0,-1,0,841.89)" d="M320.926 432.275H319.777V466.831H320.926Z" fill="#01608a"/>
<path transform="matrix(1,0,0,-1,0,841.89)" d="M321.641 432.275H320.926V466.831H321.641Z" fill="#01608a"/>
<path transform="matrix(1,0,0,-1,0,841.89)" d="M322.356 432.275H321.63999V466.831H322.356Z" fill="#01608a"/>
<path transform="matrix(1,0,0,-1,0,841.89)" d="M323.072 432.275H322.356V466.831H323.072Z" fill="#01608a"/>
<path transform="matrix(1,0,0,-1,0,841.89)" d="M323.788 432.275H323.072V466.831H323.788Z" fill="#01608a"/>
<path transform="matrix(1,0,0,-1,0,841.89)" d="M324.503 432.275H323.788V466.831H324.503Z" fill="#01608a"/>
<path transform="matrix(1,0,0,-1,0,841.89)" d="M325.219 432.275H324.503V466.831H325.219Z" fill="#01608a"/>
<path transform="matrix(1,0,0,-1,0,841.89)" d="M325.935 432.275H325.219V466.831H325.935Z" fill="#01608a"/>
<path transform="matrix(1,0,0,-1,0,841.89)" d="M326.649 432.275H325.934V466.831H326.649Z" fill="#01608a"/>
<path transform="matrix(1,0,0,-1,0,841.89)" d="M327.365 432.275H326.649V466.831H327.365Z" fill="#01608a"/>
<path transform="matrix(1,0,0,-1,0,841.89)" d="M328.081 432.275H327.365V466.831H328.081Z" fill="#01608a"/>
<path transform="matrix(1,0,0,-1,0,841.89)" d="M328.797 432.275H328.081V466.831H328.797Z" fill="#01608a"/>
<path transform="matrix(1,0,0,-1,0,841.89)" d="M329.512 432.275H328.797V466.831H329.512Z" fill="#01608a"/>
<path transform="matrix(1,0,0,-1,0,841.89)" d="M330.228 432.275H329.512V466.831H330.228Z" fill="#01608a"/>
<path transform="matrix(1,0,0,-1,0,841.89)" d="M330.943 432.275H330.227V466.831H330.943Z" fill="#01608a"/>
<path transform="matrix(1,0,0,-1,0,841.89)" d="M331.658 432.275H330.943V466.831H331.658Z" fill="#01608a"/>
<path transform="matrix(1,0,0,-1,0,841.89)" d="M332.374 432.275H331.658V466.831H332.374Z" fill="#01608a"/>
<path transform="matrix(1,0,0,-1,0,841.89)" d="M333.09 432.275H332.374V466.831H333.09Z" fill="#01608a"/>
<path transform="matrix(1,0,0,-1,0,841.89)" d="M333.806 432.275H333.09V466.831H333.806Z" fill="#01608a"/>
<path transform="matrix(1,0,0,-1,0,841.89)" d="M334.521 432.275H333.806V466.831H334.521Z" fill="#01608a"/>
<path transform="matrix(1,0,0,-1,0,841.89)" d="M335.236 432.275H334.52V466.831H335.236Z" fill="#01608a"/>
<path transform="matrix(1,0,0,-1,0,841.89)" d="M335.952 432.275H335.236V466.831H335.952Z" fill="#01608a"/>
<path transform="matrix(1,0,0,-1,0,841.89)" d="M336.667 432.275H335.952V466.831H336.667Z" fill="#01608a"/>
<path transform="matrix(1,0,0,-1,0,841.89)" d="M337.383 432.275H336.667V466.831H337.383Z" fill="#01608a"/>
<path transform="matrix(1,0,0,-1,0,841.89)" d="M338.099 432.275H337.383V466.831H338.099Z" fill="#01608a"/>
<path transform="matrix(1,0,0,-1,0,841.89)" d="M338.814 432.275H338.098V466.831H338.814Z" fill="#01608a"/>
<path transform="matrix(1,0,0,-1,0,841.89)" d="M339.529 432.275H338.814V466.831H339.529Z" fill="#01608a"/>
<path transform="matrix(1,0,0,-1,0,841.89)" d="M340.245 432.275H339.529V466.831H340.245Z" fill="#01608a"/>
<path transform="matrix(1,0,0,-1,0,841.89)" d="M340.961 432.275H340.245V466.831H340.961Z" fill="#01608a"/>
<path transform="matrix(1,0,0,-1,0,841.89)" d="M341.676 432.275H340.961V466.831H341.676Z" fill="#01608a"/>
<path transform="matrix(1,0,0,-1,0,841.89)" d="M342.392 432.275H341.676V466.831H342.392Z" fill="#01608a"/>
<path transform="matrix(1,0,0,-1,0,841.89)" d="M343.107 432.275H342.391V466.831H343.107Z" fill="#01608a"/>
<path transform="matrix(1,0,0,-1,0,841.89)" d="M343.823 432.275H343.107V466.831H343.823Z" fill="#01608a"/>
<path transform="matrix(1,0,0,-1,0,841.89)" d="M344.538 432.275H343.823V466.831H344.538Z" fill="#01608a"/>
<path transform="matrix(1,0,0,-1,0,841.89)" d="M345.254 432.275H344.538V466.831H345.254Z" fill="#01608a"/>
<path transform="matrix(1,0,0,-1,0,841.89)" d="M345.97 432.275H345.254V466.831H345.97Z" fill="#01608a"/>
<path transform="matrix(1,0,0,-1,0,841.89)" d="M346.685 432.275H345.97V466.831H346.685Z" fill="#01608a"/>
<path transform="matrix(1,0,0,-1,0,841.89)" d="M347.4 432.275H346.684V466.831H347.4Z" fill="#01608a"/>
<path transform="matrix(1,0,0,-1,0,841.89)" d="M348.116 432.275H347.4V466.831H348.116Z" fill="#01608a"/>
<path transform="matrix(1,0,0,-1,0,841.89)" d="M348.832 432.275H348.116V466.831H348.832Z" fill="#01608a"/>
<path transform="matrix(1,0,0,-1,0,841.89)" d="M349.547 432.275H348.832V466.831H349.547Z" fill="#01608a"/>
<path transform="matrix(1,0,0,-1,0,841.89)" d="M350.263 432.275H349.547V466.831H350.263Z" fill="#01608a"/>
<path transform="matrix(1,0,0,-1,0,841.89)" d="M350.979 432.275H350.263V466.831H350.979Z" fill="#01608a"/>
<path transform="matrix(1,0,0,-1,0,841.89)" d="M351.693 432.275H350.978V466.831H351.693Z" fill="#01608a"/>
<path transform="matrix(1,0,0,-1,0,841.89)" d="M352.409 432.275H351.693V466.831H352.409Z" fill="#01608a"/>
<path transform="matrix(1,0,0,-1,0,841.89)" d="M353.125 432.275H352.409V466.831H353.125Z" fill="#01608a"/>
<path transform="matrix(1,0,0,-1,0,841.89)" d="M353.841 432.275H353.125V466.831H353.841Z" fill="#01608a"/>
<path transform="matrix(1,0,0,-1,0,841.89)" d="M354.556 432.275H353.841V466.831H354.556Z" fill="#01608a"/>
<path transform="matrix(1,0,0,-1,0,841.89)" d="M355.271 432.275H354.555V466.831H355.271Z" fill="#01608a"/>
<path transform="matrix(1,0,0,-1,0,841.89)" d="M355.987 432.275H355.271V466.831H355.987Z" fill="#01608a"/>
<path transform="matrix(1,0,0,-1,0,841.89)" d="M356.702 432.275H355.987V466.831H356.702Z" fill="#01608a"/>
<path transform="matrix(1,0,0,-1,0,841.89)" d="M357.418 432.275H356.702V466.831H357.418Z" fill="#01608a"/>
<path transform="matrix(1,0,0,-1,0,841.89)" d="M358.134 432.275H357.418V466.831H358.134Z" fill="#01608a"/>
<path transform="matrix(1,0,0,-1,0,841.89)" d="M358.85 432.275H358.134V466.831H358.85Z" fill="#01608a"/>
<path transform="matrix(1,0,0,-1,0,841.89)" d="M359.564 432.275H358.849V466.831H359.564Z" fill="#01608a"/>
<path transform="matrix(1,0,0,-1,0,841.89)" d="M360.28 432.275H359.564V466.831H360.28Z" fill="#01608a"/>
<path transform="matrix(1,0,0,-1,0,841.89)" d="M360.996 432.275H360.28V466.831H360.996Z" fill="#01608a"/>
<path transform="matrix(1,0,0,-1,0,841.89)" d="M361.711 432.275H360.996V466.831H361.711Z" fill="#01608a"/>
<path transform="matrix(1,0,0,-1,0,841.89)" d="M362.427 432.275H361.711V466.831H362.427Z" fill="#01608a"/>
<path transform="matrix(1,0,0,-1,0,841.89)" d="M363.143 432.275H362.427V466.831H363.143Z" fill="#01608a"/>
<path transform="matrix(1,0,0,-1,0,841.89)" d="M363.858 432.275H363.142V466.831H363.858Z" fill="#01608a"/>
<path transform="matrix(1,0,0,-1,0,841.89)" d="M364.573 432.275H363.858V466.831H364.573Z" fill="#01608a"/>
<path transform="matrix(1,0,0,-1,0,841.89)" d="M365.289 432.275H364.573V466.831H365.289Z" fill="#01608a"/>
<path transform="matrix(1,0,0,-1,0,841.89)" d="M366.005 432.275H365.289V466.831H366.005Z" fill="#01608a"/>
<path transform="matrix(1,0,0,-1,0,841.89)" d="M366.72 432.275H366.005V466.831H366.72Z" fill="#01608a"/>
<path transform="matrix(1,0,0,-1,0,841.89)" d="M367.436 432.275H366.72V466.831H367.436Z" fill="#01608a"/>
<path transform="matrix(1,0,0,-1,0,841.89)" d="M368.151 432.275H367.435V466.831H368.151Z" fill="#01608a"/>
<path transform="matrix(1,0,0,-1,0,841.89)" d="M368.867 432.275H368.151V466.831H368.867Z" fill="#01608a"/>
<path transform="matrix(1,0,0,-1,0,841.89)" d="M369.582 432.275H368.867V466.831H369.582Z" fill="#01608a"/>
<path transform="matrix(1,0,0,-1,0,841.89)" d="M370.298 432.275H369.582V466.831H370.298Z" fill="#01608a"/>
<path transform="matrix(1,0,0,-1,0,841.89)" d="M371.014 432.275H370.298V466.831H371.014Z" fill="#01608a"/>
<path transform="matrix(1,0,0,-1,0,841.89)" d="M371.729 432.275H371.014V466.831H371.729Z" fill="#01608a"/>
<path transform="matrix(1,0,0,-1,0,841.89)" d="M372.444 432.275H371.728V466.831H372.444Z" fill="#01608a"/>
<path transform="matrix(1,0,0,-1,0,841.89)" d="M373.16 432.275H372.444V466.831H373.16Z" fill="#01608a"/>
<path transform="matrix(1,0,0,-1,0,841.89)" d="M373.876 432.275H373.16V466.831H373.876Z" fill="#01608a"/>
<path transform="matrix(1,0,0,-1,0,841.89)" d="M374.591 432.275H373.876V466.831H374.591Z" fill="#01608a"/>
<path transform="matrix(1,0,0,-1,0,841.89)" d="M375.307 432.275H374.591V466.831H375.307Z" fill="#01608a"/>
<path transform="matrix(1,0,0,-1,0,841.89)" d="M376.022 432.275H375.306V466.831H376.022Z" fill="#01608a"/>
<path transform="matrix(1,0,0,-1,0,841.89)" d="M376.737 432.275H376.022V466.831H376.737Z" fill="#01608a"/>
<path transform="matrix(1,0,0,-1,0,841.89)" d="M377.453 432.275H376.737V466.831H377.453Z" fill="#01608a"/>
<path transform="matrix(1,0,0,-1,0,841.89)" d="M378.169 432.275H377.453V466.831H378.169Z" fill="#01608a"/>
<path transform="matrix(1,0,0,-1,0,841.89)" d="M378.885 432.275H378.169V466.831H378.885Z" fill="#01608a"/>
<path transform="matrix(1,0,0,-1,0,841.89)" d="M379.6 432.275H378.885V466.831H379.6Z" fill="#01608a"/>
<path transform="matrix(1,0,0,-1,0,841.89)" d="M380.315 432.275H379.599V466.831H380.315Z" fill="#01608a"/>
<path transform="matrix(1,0,0,-1,0,841.89)" d="M381.031 432.275H380.315V466.831H381.031Z" fill="#01608a"/>
<path transform="matrix(1,0,0,-1,0,841.89)" d="M381.746 432.275H381.031V466.831H381.746Z" fill="#01608a"/>
<path transform="matrix(1,0,0,-1,0,841.89)" d="M382.462 432.275H381.746V466.831H382.462Z" fill="#01608a"/>
<path transform="matrix(1,0,0,-1,0,841.89)" d="M383.178 432.275H382.462V466.831H383.178Z" fill="#01608a"/>
<path transform="matrix(1,0,0,-1,0,841.89)" d="M383.893 432.275H383.178V466.831H383.893Z" fill="#01608a"/>
<path transform="matrix(1,0,0,-1,0,841.89)" d="M384.608 432.275H383.892V466.831H384.608Z" fill="#01608a"/>
<path transform="matrix(1,0,0,-1,0,841.89)" d="M385.324 432.275H384.608V466.831H385.324Z" fill="#01608a"/>
<path transform="matrix(1,0,0,-1,0,841.89)" d="M386.04 432.275H385.324V466.831H386.04Z" fill="#01608a"/>
<path transform="matrix(1,0,0,-1,0,841.89)" d="M386.755 432.275H386.04V466.831H386.755Z" fill="#01608a"/>
<path transform="matrix(1,0,0,-1,0,841.89)" d="M387.471 432.275H386.755V466.831H387.471Z" fill="#01608a"/>
<path transform="matrix(1,0,0,-1,0,841.89)" d="M388.187 432.275H387.471V466.831H388.187Z" fill="#01608a"/>
<path transform="matrix(1,0,0,-1,0,841.89)" d="M388.901 432.275H388.186V466.831H388.901Z" fill="#01608a"/>
<path transform="matrix(1,0,0,-1,0,841.89)" d="M389.617 432.275H388.901V466.831H389.617Z" fill="#01608a"/>
<path transform="matrix(1,0,0,-1,0,841.89)" d="M390.333 432.275H389.617V466.831H390.333Z" fill="#01608a"/>
<path transform="matrix(1,0,0,-1,0,841.89)" d="M391.049 432.275H390.333V466.831H391.049Z" fill="#01608a"/>
<path transform="matrix(1,0,0,-1,0,841.89)" d="M391.764 432.275H391.049V466.831H391.764Z" fill="#01608a"/>
<path transform="matrix(1,0,0,-1,0,841.89)" d="M392.479 432.275H391.763V466.831H392.479Z" fill="#01608a"/>
<path transform="matrix(1,0,0,-1,0,841.89)" d="M393.195 432.275H392.479V466.831H393.195Z" fill="#01608a"/>
<path transform="matrix(1,0,0,-1,0,841.89)" d="M393.91 432.275H393.195V466.831H393.91Z" fill="#01608a"/>
<path transform="matrix(1,0,0,-1,0,841.89)" d="M394.626 432.275H393.91V466.831H394.626Z" fill="#01608a"/>
<path transform="matrix(1,0,0,-1,0,841.89)" d="M395.342 432.275H394.626V466.831H395.342Z" fill="#01608a"/>
<path transform="matrix(1,0,0,-1,0,841.89)" d="M396.058 432.275H395.342V466.831H396.058Z" fill="#01608a"/>
<path transform="matrix(1,0,0,-1,0,841.89)" d="M396.772 432.275H396.057V466.831H396.772Z" fill="#01608a"/>
<path transform="matrix(1,0,0,-1,0,841.89)" d="M397.488 432.275H396.772V466.831H397.488Z" fill="#01608a"/>
<path transform="matrix(1,0,0,-1,0,841.89)" d="M398.204 432.275H397.488V466.831H398.204Z" fill="#01608a"/>
<path transform="matrix(1,0,0,-1,0,841.89)" d="M398.919 432.275H398.204V466.831H398.919Z" fill="#01608a"/>
<path transform="matrix(1,0,0,-1,0,841.89)" d="M399.635 432.275H398.919V466.831H399.635Z" fill="#01608a"/>
<path transform="matrix(1,0,0,-1,0,841.89)" d="M400.351 432.275H399.635V466.831H400.351Z" fill="#01608a"/>
<path transform="matrix(1,0,0,-1,0,841.89)" d="M401.066 432.275H400.35V466.831H401.066Z" fill="#01608a"/>
<path transform="matrix(1,0,0,-1,0,841.89)" d="M401.781 432.275H401.066V466.831H401.781Z" fill="#01608a"/>
<path transform="matrix(1,0,0,-1,0,841.89)" d="M402.497 432.275H401.781V466.831H402.497Z" fill="#01608a"/>
<path transform="matrix(1,0,0,-1,0,841.89)" d="M403.213 432.275H402.497V466.831H403.213Z" fill="#01608a"/>
<path transform="matrix(1,0,0,-1,0,841.89)" d="M403.928 432.275H403.213V466.831H403.928Z" fill="#01608a"/>
<path transform="matrix(1,0,0,-1,0,841.89)" d="M404.644 432.275H403.928V466.831H404.644Z" fill="#01608a"/>
<path transform="matrix(1,0,0,-1,0,841.89)" d="M405.359 432.275H404.643V466.831H405.359Z" fill="#01608a"/>
<path transform="matrix(1,0,0,-1,0,841.89)" d="M406.075 432.275H405.359V466.831H406.075Z" fill="#01608a"/>
<path transform="matrix(1,0,0,-1,0,841.89)" d="M406.79 432.275H406.075V466.831H406.79Z" fill="#01608a"/>
<path transform="matrix(1,0,0,-1,0,841.89)" d="M407.506 432.275H406.79V466.831H407.506Z" fill="#01608a"/>
<path transform="matrix(1,0,0,-1,0,841.89)" d="M408.222 432.275H407.50599V466.831H408.222Z" fill="#01608a"/>
<path transform="matrix(1,0,0,-1,0,841.89)" d="M408.937 432.275H408.22203V466.831H408.937Z" fill="#01608a"/>
<path transform="matrix(1,0,0,-1,0,841.89)" d="M409.652 432.275H408.936V466.831H409.652Z" fill="#01608a"/>
<path transform="matrix(1,0,0,-1,0,841.89)" d="M410.368 432.275H409.652V466.831H410.368Z" fill="#01608a"/>
<path transform="matrix(1,0,0,-1,0,841.89)" d="M411.084 432.275H410.368V466.831H411.084Z" fill="#01608a"/>
<path transform="matrix(1,0,0,-1,0,841.89)" d="M411.799 432.275H411.084V466.831H411.799Z" fill="#01608a"/>
<path transform="matrix(1,0,0,-1,0,841.89)" d="M412.515 432.275H411.799V466.831H412.515Z" fill="#01608a"/>
<path transform="matrix(1,0,0,-1,0,841.89)" d="M413.23 432.275H412.514V466.831H413.23Z" fill="#01608a"/>
<path transform="matrix(1,0,0,-1,0,841.89)" d="M413.945 432.275H413.23V466.831H413.945Z" fill="#01608a"/>
<path transform="matrix(1,0,0,-1,0,841.89)" d="M414.661 432.275H413.945V466.831H414.661Z" fill="#01608a"/>
<path transform="matrix(1,0,0,-1,0,841.89)" d="M415.377 432.275H414.661V466.831H415.377Z" fill="#01608a"/>
<path transform="matrix(1,0,0,-1,0,841.89)" d="M416.093 432.275H415.37699V466.831H416.093Z" fill="#01608a"/>
<path transform="matrix(1,0,0,-1,0,841.89)" d="M416.808 432.275H416.09303V466.831H416.808Z" fill="#01608a"/>
<path transform="matrix(1,0,0,-1,0,841.89)" d="M417.523 432.275H416.807V466.831H417.523Z" fill="#01608a"/>
<path transform="matrix(1,0,0,-1,0,841.89)" d="M418.239 432.275H417.523V466.831H418.239Z" fill="#01608a"/>
<path transform="matrix(1,0,0,-1,0,841.89)" d="M418.954 432.275H418.239V466.831H418.954Z" fill="#01608a"/>
<path transform="matrix(1,0,0,-1,0,841.89)" d="M419.67 432.275H418.954V466.831H419.67Z" fill="#01608a"/>
<path transform="matrix(1,0,0,-1,0,841.89)" d="M420.386 432.275H419.66999V466.831H420.386Z" fill="#01608a"/>
<path transform="matrix(1,0,0,-1,0,841.89)" d="M421.102 432.275H420.386V466.831H421.102Z" fill="#01608a"/>
<path transform="matrix(1,0,0,-1,0,841.89)" d="M421.816 432.275H421.101V466.831H421.816Z" fill="#01608a"/>
<path transform="matrix(1,0,0,-1,0,841.89)" d="M422.532 432.275H421.816V466.831H422.532Z" fill="#01608a"/>
<path transform="matrix(1,0,0,-1,0,841.89)" d="M423.248 432.275H422.53199V466.831H423.248Z" fill="#01608a"/>
<path transform="matrix(1,0,0,-1,0,841.89)" d="M423.963 432.275H423.24803V466.831H423.963Z" fill="#01608a"/>
<path transform="matrix(1,0,0,-1,0,841.89)" d="M424.679 432.275H423.96299V466.831H424.679Z" fill="#01608a"/>
<path transform="matrix(1,0,0,-1,0,841.89)" d="M425.395 432.275H424.679V466.831H425.395Z" fill="#01608a"/>
<path transform="matrix(1,0,0,-1,0,841.89)" d="M426.11 432.275H425.39399V466.831H426.11Z" fill="#01608a"/>
<path transform="matrix(1,0,0,-1,0,841.89)" d="M426.825 432.275H426.11003V466.831H426.825Z" fill="#01608a"/>
<path transform="matrix(1,0,0,-1,0,841.89)" d="M427.541 432.275H426.82499V466.831H427.541Z" fill="#01608a"/>
<path transform="matrix(1,0,0,-1,0,841.89)" d="M428.257 432.275H427.541V466.831H428.257Z" fill="#01608a"/>
<path transform="matrix(1,0,0,-1,0,841.89)" d="M428.972 432.275H428.257V466.831H428.972Z" fill="#01608a"/>
<path transform="matrix(1,0,0,-1,0,841.89)" d="M429.687 432.275H428.971V466.831H429.687Z" fill="#01608a"/>
<path transform="matrix(1,0,0,-1,0,841.89)" d="M430.403 432.275H429.687V466.831H430.403Z" fill="#01608a"/>
<path transform="matrix(1,0,0,-1,0,841.89)" d="M431.119 432.275H430.40299V466.831H431.119Z" fill="#01608a"/>
<path transform="matrix(1,0,0,-1,0,841.89)" d="M431.834 432.275H431.11903V466.831H431.834Z" fill="#01608a"/>
<path transform="matrix(1,0,0,-1,0,841.89)" d="M432.55 432.275H431.83399V466.831H432.55Z" fill="#01608a"/>
<path transform="matrix(1,0,0,-1,0,841.89)" d="M433.266 432.275H432.55V466.831H433.266Z" fill="#01608a"/>
<path transform="matrix(1,0,0,-1,0,841.89)" d="M433.98 432.275H433.265V466.831H433.98Z" fill="#01608a"/>
<path transform="matrix(1,0,0,-1,0,841.89)" d="M434.696 432.275H433.98V466.831H434.696Z" fill="#01608a"/>
<path transform="matrix(1,0,0,-1,0,841.89)" d="M435.412 432.275H434.69599V466.831H435.412Z" fill="#01608a"/>
<path transform="matrix(1,0,0,-1,0,841.89)" d="M436.128 432.275H435.412V466.831H436.128Z" fill="#01608a"/>
<path transform="matrix(1,0,0,-1,0,841.89)" d="M436.843 432.275H436.128V466.831H436.843Z" fill="#01608a"/>
<path transform="matrix(1,0,0,-1,0,841.89)" d="M437.559 432.275H436.843V466.831H437.559Z" fill="#01608a"/>
<path transform="matrix(1,0,0,-1,0,841.89)" d="M438.274 432.275H437.55799V466.831H438.274Z" fill="#01608a"/>
<path transform="matrix(1,0,0,-1,0,841.89)" d="M438.989 432.275H438.27403V466.831H438.989Z" fill="#01608a"/>
<path transform="matrix(1,0,0,-1,0,841.89)" d="M439.705 432.275H438.98899V466.831H439.705Z" fill="#01608a"/>
<path transform="matrix(1,0,0,-1,0,841.89)" d="M440.421 432.275H439.705V466.831H440.421Z" fill="#01608a"/>
<path transform="matrix(1,0,0,-1,0,841.89)" d="M441.137 432.275H440.421V466.831H441.137Z" fill="#01608a"/>
<path transform="matrix(1,0,0,-1,0,841.89)" d="M441.852 432.275H441.137V466.831H441.852Z" fill="#01608a"/>
<path transform="matrix(1,0,0,-1,0,841.89)" d="M442.567 432.275H441.85099V466.831H442.567Z" fill="#01608a"/>
<path transform="matrix(1,0,0,-1,0,841.89)" d="M443.283 432.275H442.567V466.831H443.283Z" fill="#01608a"/>
<path transform="matrix(1,0,0,-1,0,841.89)" d="M443.998 432.275H443.283V466.831H443.998Z" fill="#01608a"/>
<path transform="matrix(1,0,0,-1,0,841.89)" d="M444.714 432.275H443.998V466.831H444.714Z" fill="#01608a"/>
<path transform="matrix(1,0,0,-1,0,841.89)" d="M445.43 432.275H444.714V466.831H445.43Z" fill="#01608a"/>
<path transform="matrix(1,0,0,-1,0,841.89)" d="M446.146 432.275H445.43V466.831H446.146Z" fill="#01608a"/>
<path transform="matrix(1,0,0,-1,0,841.89)" d="M446.86 432.275H446.145V466.831H446.86Z" fill="#01608a"/>
<path transform="matrix(1,0,0,-1,0,841.89)" d="M447.576 432.275H446.86V466.831H447.576Z" fill="#01608a"/>
<path transform="matrix(1,0,0,-1,0,841.89)" d="M448.292 432.275H447.576V466.831H448.292Z" fill="#01608a"/>
<path transform="matrix(1,0,0,-1,0,841.89)" d="M449.007 432.275H448.292V466.831H449.007Z" fill="#01608a"/>
<path transform="matrix(1,0,0,-1,0,841.89)" d="M449.723 432.275H449.007V466.831H449.723Z" fill="#01608a"/>
<path transform="matrix(1,0,0,-1,0,841.89)" d="M450.438 432.275H449.722V466.831H450.438Z" fill="#01608a"/>
<path transform="matrix(1,0,0,-1,0,841.89)" d="M451.154 432.275H450.438V466.831H451.154Z" fill="#01608a"/>
<path transform="matrix(1,0,0,-1,0,841.89)" d="M451.869 432.275H451.154V466.831H451.869Z" fill="#01608a"/>
<path transform="matrix(1,0,0,-1,0,841.89)" d="M452.585 432.275H451.869V466.831H452.585Z" fill="#01608a"/>
<path transform="matrix(1,0,0,-1,0,841.89)" d="M453.301 432.275H452.585V466.831H453.301Z" fill="#01608a"/>
<path transform="matrix(1,0,0,-1,0,841.89)" d="M454.016 432.275H453.301V466.831H454.016Z" fill="#01608a"/>
<path transform="matrix(1,0,0,-1,0,841.89)" d="M454.731 432.275H454.01499V466.831H454.731Z" fill="#01608a"/>
<path transform="matrix(1,0,0,-1,0,841.89)" d="M455.447 432.275H454.731V466.831H455.447Z" fill="#01608a"/>
<path transform="matrix(1,0,0,-1,0,841.89)" d="M456.163 432.275H455.447V466.831H456.163Z" fill="#01608a"/>
<path transform="matrix(1,0,0,-1,0,841.89)" d="M456.878 432.275H456.163V466.831H456.878Z" fill="#01608a"/>
<path transform="matrix(1,0,0,-1,0,841.89)" d="M457.594 432.275H456.878V466.831H457.594Z" fill="#01608a"/>
<path transform="matrix(1,0,0,-1,0,841.89)" d="M458.31 432.275H457.594V466.831H458.31Z" fill="#01608a"/>
<path transform="matrix(1,0,0,-1,0,841.89)" d="M459.024 432.275H458.309V466.831H459.024Z" fill="#01608a"/>
<path transform="matrix(1,0,0,-1,0,841.89)" d="M459.74 432.275H459.024V466.831H459.74Z" fill="#01608a"/>
<path transform="matrix(1,0,0,-1,0,841.89)" d="M460.456 432.275H459.74V466.831H460.456Z" fill="#01608a"/>
<path transform="matrix(1,0,0,-1,0,841.89)" d="M461.172 432.275H460.456V466.831H461.172Z" fill="#01608a"/>
<path transform="matrix(1,0,0,-1,0,841.89)" d="M461.887 432.275H461.172V466.831H461.887Z" fill="#01608a"/>
<path transform="matrix(1,0,0,-1,0,841.89)" d="M462.603 432.275H461.887V466.831H462.603Z" fill="#01608a"/>
<path transform="matrix(1,0,0,-1,0,841.89)" d="M463.318 432.275H462.602V466.831H463.318Z" fill="#01608a"/>
<path transform="matrix(1,0,0,-1,0,841.89)" d="M464.033 432.275H463.318V466.831H464.033Z" fill="#01608a"/>
<path transform="matrix(1,0,0,-1,0,841.89)" d="M464.749 432.275H464.033V466.831H464.749Z" fill="#01608a"/>
<path transform="matrix(1,0,0,-1,0,841.89)" d="M465.465 432.275H464.749V466.831H465.465Z" fill="#01608a"/>
<path transform="matrix(1,0,0,-1,0,841.89)" d="M466.181 432.275H465.465V466.831H466.181Z" fill="#01608a"/>
<path transform="matrix(1,0,0,-1,0,841.89)" d="M466.896 432.275H466.181V466.831H466.896Z" fill="#01608a"/>
<path transform="matrix(1,0,0,-1,0,841.89)" d="M467.611 432.275H466.895V466.831H467.611Z" fill="#01608a"/>
<path transform="matrix(1,0,0,-1,0,841.89)" d="M468.327 432.275H467.611V466.831H468.327Z" fill="#01608a"/>
<path transform="matrix(1,0,0,-1,0,841.89)" d="M469.042 432.275H468.327V466.831H469.042Z" fill="#01608a"/>
<path transform="matrix(1,0,0,-1,0,841.89)" d="M469.758 432.275H469.042V466.831H469.758Z" fill="#01608a"/>
<path transform="matrix(1,0,0,-1,0,841.89)" d="M470.474 432.275H469.758V466.831H470.474Z" fill="#01608a"/>
<path transform="matrix(1,0,0,-1,0,841.89)" d="M471.188 432.275H470.473V466.831H471.188Z" fill="#01608a"/>
<path transform="matrix(1,0,0,-1,0,841.89)" d="M471.904 432.275H471.188V466.831H471.904Z" fill="#01608a"/>
<path transform="matrix(1,0,0,-1,0,841.89)" d="M472.62 432.275H471.904V466.831H472.62Z" fill="#01608a"/>
<path transform="matrix(1,0,0,-1,0,841.89)" d="M473.336 432.275H472.62V466.831H473.336Z" fill="#01608a"/>
<path transform="matrix(1,0,0,-1,0,841.89)" d="M474.051 432.275H473.336V466.831H474.051Z" fill="#01608a"/>
<path transform="matrix(1,0,0,-1,0,841.89)" d="M474.767 432.275H474.051V466.831H474.767Z" fill="#01608a"/>
<path transform="matrix(1,0,0,-1,0,841.89)" d="M475.482 432.275H474.766V466.831H475.482Z" fill="#01608a"/>
<path transform="matrix(1,0,0,-1,0,841.89)" d="M476.197 432.275H475.482V466.831H476.197Z" fill="#01608a"/>
<path transform="matrix(1,0,0,-1,0,841.89)" d="M476.913 432.275H476.197V466.831H476.913Z" fill="#01608a"/>
<path transform="matrix(1,0,0,-1,0,841.89)" d="M477.629 432.275H476.913V466.831H477.629Z" fill="#01608a"/>
<path transform="matrix(1,0,0,-1,0,841.89)" d="M478.345 432.275H477.629V466.831H478.345Z" fill="#01608a"/>
<path transform="matrix(1,0,0,-1,0,841.89)" d="M479.06 432.275H478.345V466.831H479.06Z" fill="#01608a"/>
<path transform="matrix(1,0,0,-1,0,841.89)" d="M479.775 432.275H479.059V466.831H479.775Z" fill="#01608a"/>
<path transform="matrix(1,0,0,-1,0,841.89)" d="M480.491 432.275H479.775V466.831H480.491Z" fill="#01608a"/>
<path transform="matrix(1,0,0,-1,0,841.89)" d="M481.206 432.275H480.491V466.831H481.206Z" fill="#01608a"/>
<path transform="matrix(1,0,0,-1,0,841.89)" d="M481.922 432.275H481.206V466.831H481.922Z" fill="#01608a"/>
<path transform="matrix(1,0,0,-1,0,841.89)" d="M482.638 432.275H481.922V466.831H482.638Z" fill="#01608a"/>
<path transform="matrix(1,0,0,-1,0,841.89)" d="M483.354 432.275H482.638V466.831H483.354Z" fill="#01608a"/>
<path transform="matrix(1,0,0,-1,0,841.89)" d="M484.068 432.275H483.353V466.831H484.068Z" fill="#01608a"/>
<path transform="matrix(1,0,0,-1,0,841.89)" d="M484.784 432.275H484.068V466.831H484.784Z" fill="#01608a"/>
<path transform="matrix(1,0,0,-1,0,841.89)" d="M485.5 432.275H484.784V466.831H485.5Z" fill="#01608a"/>
<path transform="matrix(1,0,0,-1,0,841.89)" d="M486.215 432.275H485.5V466.831H486.215Z" fill="#01608a"/>
<path transform="matrix(1,0,0,-1,0,841.89)" d="M486.931 432.275H486.215V466.831H486.931Z" fill="#01608a"/>
<path transform="matrix(1,0,0,-1,0,841.89)" d="M487.646 432.275H486.93V466.831H487.646Z" fill="#01608a"/>
<path transform="matrix(1,0,0,-1,0,841.89)" d="M488.362 432.275H487.646V466.831H488.362Z" fill="#01608a"/>
<path transform="matrix(1,0,0,-1,0,841.89)" d="M489.077 432.275H488.362V466.831H489.077Z" fill="#01608a"/>
<path transform="matrix(1,0,0,-1,0,841.89)" d="M489.793 432.275H489.077V466.831H489.793Z" fill="#01608a"/>
<path transform="matrix(1,0,0,-1,0,841.89)" d="M490.509 432.275H489.793V466.831H490.509Z" fill="#01608a"/>
<path transform="matrix(1,0,0,-1,0,841.89)" d="M491.224 432.275H490.509V466.831H491.224Z" fill="#01608a"/>
<path transform="matrix(1,0,0,-1,0,841.89)" d="M491.939 432.275H491.223V466.831H491.939Z" fill="#01608a"/>
<path transform="matrix(1,0,0,-1,0,841.89)" d="M492.655 432.275H491.939V466.831H492.655Z" fill="#01608a"/>
<path transform="matrix(1,0,0,-1,0,841.89)" d="M493.371 432.275H492.655V466.831H493.371Z" fill="#01608a"/>
<path transform="matrix(1,0,0,-1,0,841.89)" d="M494.086 432.275H493.371V466.831H494.086Z" fill="#01608a"/>
<path transform="matrix(1,0,0,-1,0,841.89)" d="M494.802 432.275H494.086V466.831H494.802Z" fill="#01608a"/>
<path transform="matrix(1,0,0,-1,0,841.89)" d="M495.518 432.275H494.802V466.831H495.518Z" fill="#01608a"/>
<path transform="matrix(1,0,0,-1,0,841.89)" d="M496.232 432.275H495.517V466.831H496.232Z" fill="#01608a"/>
<path transform="matrix(1,0,0,-1,0,841.89)" d="M496.948 432.275H496.232V466.831H496.948Z" fill="#01608a"/>
<path transform="matrix(1,0,0,-1,0,841.89)" d="M497.664 432.275H496.948V466.831H497.664Z" fill="#01608a"/>
<path transform="matrix(1,0,0,-1,0,841.89)" d="M498.38 432.275H497.664V466.831H498.38Z" fill="#01608a"/>
<path transform="matrix(1,0,0,-1,0,841.89)" d="M499.095 432.275H498.38V466.831H499.095Z" fill="#01608a"/>
<path transform="matrix(1,0,0,-1,0,841.89)" d="M499.811 432.275H499.095V466.831H499.811Z" fill="#01608a"/>
<path transform="matrix(1,0,0,-1,0,841.89)" d="M500.526 432.275H499.81V466.831H500.526Z" fill="#01608a"/>
<path transform="matrix(1,0,0,-1,0,841.89)" d="M501.241 432.275H500.526V466.831H501.241Z" fill="#01608a"/>
<path transform="matrix(1,0,0,-1,0,841.89)" d="M501.957 432.275H501.241V466.831H501.957Z" fill="#01608a"/>
<path transform="matrix(1,0,0,-1,0,841.89)" d="M502.673 432.275H501.957V466.831H502.673Z" fill="#01608a"/>
<path transform="matrix(1,0,0,-1,0,841.89)" d="M503.389 432.275H502.673V466.831H503.389Z" fill="#01608a"/>
<path transform="matrix(1,0,0,-1,503.3887,409.6155)" d="M0 0V34.556Z" fill="#01608a"/>
</g>
<g clip-path="url(#clip_3)">
<path transform="matrix(1,0,0,-1,186.8174,312.2141)" stroke-width=".75" stroke-linecap="butt" stroke-miterlimit="10" stroke-linejoin="miter" fill="none" stroke="#f26122" d="M0 0 70.468 32.782 263.222 0"/>
<path transform="matrix(1,0,0,-1,275.999,282.6145)" stroke-width=".75" stroke-linecap="butt" stroke-miterlimit="10" stroke-linejoin="miter" fill="none" stroke="#f26122" d="M0 0 38.794 13.147 230.606-29.6"/>
</g>
<text fill="#01608a" xml:space="preserve" transform="matrix(1.0540933 0 -0 .9486828 0 841.89)" font-size="17.151045" font-family="YGBIZS+Modern-Regular"><tspan y="-411.33613" x="20.698739 35.225675 51.24475 68.31004 82.47681 98.08426 115.08094 132.3006 146.82753 162.43498 174.69799 190.71706 207.78235 217.14682 225.25926 234.62375 252.23787 269.286 283.45277 295.71577 312.42088 329.48619 343.65293 353.0174 361.12983 370.49433 385.02125 401.0403 418.1056 432.27235 449.492 466.26573 481.87318 498.83558 515.9009 530.4278">CONSTRUCTION | DESIGNS | CONSULTANCY</tspan></text>
<g clip-path="url(#clip_4)">
<path transform="matrix(1,0,0,-1,31.668,415.0852)" d="M0 0C-.959 .164-1.916 .248-2.842 .248-3.787 .248-4.718 .155-5.607-.028-6.443-.201-7.038-.43-7.429-.729-7.857-1.056-8.074-1.496-8.074-2.038-8.074-2.318-7.982-2.583-7.804-2.824-7.618-3.075-7.386-3.232-7.125-3.287-6.56-3.43-6.44-3.487-6.427-3.494-6.415-3.5-6.346-3.541-6.217-3.715-6.102-3.873-6.029-4.088-5.998-4.352-5.963-4.671-5.91-5.734-5.836-7.528L-5.799-11.635C-5.799-12.365-5.949-12.954-6.246-13.388-6.518-13.787-6.864-13.981-7.303-13.981-7.536-13.981-7.712-13.927-7.84-13.817-7.958-13.714-8.013-13.588-7.997-13.226-7.891-12.791-7.841-12.495-7.841-12.294-7.841-11.532-8.146-10.884-8.748-10.365-9.335-9.868-10.055-9.617-10.885-9.617-11.746-9.617-12.474-9.919-13.046-10.516-13.615-11.107-13.904-11.862-13.904-12.761-13.904-13.471-13.727-14.15-13.375-14.778-13.023-15.408-12.542-15.914-11.945-16.281-11.254-16.713-10.429-17.054-9.492-17.297-8.562-17.54-7.619-17.663-6.692-17.663-5.645-17.663-4.631-17.496-3.679-17.168-2.717-16.838-1.917-16.373-1.303-15.789-.54-15.068-.026-14.07 .222-12.821 .306-12.396 .359-11.964 .38-11.515 .4-11.082 .422-9.782 .448-7.619 .518-4.872 .585-4.044 .63-3.832 .679-3.602 .896-3.385 1.275-3.189 1.73-2.962 2.014-2.772 2.169-2.592 2.341-2.392 2.428-2.123 2.428-1.793 2.428-1.291 2.207-.875 1.789-.589 1.413-.333 .827-.14 0 0" fill="#01608a"/>
<path transform="matrix(1,0,0,-1,47.5508,427.94853)" d="M0 0C-.318-.391-.727-.58-1.251-.58-1.574-.58-1.897-.479-2.211-.276-2.539-.067-2.822 .22-3.046 .575-3.6 1.485-4.066 2.546-4.432 3.726-4.795 4.899-4.98 5.942-4.98 6.828-4.98 7.396-4.846 7.869-4.567 8.28-4.228 8.799-3.786 9.052-3.213 9.054-2.86 9.038-2.513 8.908-2.154 8.658-1.784 8.4-1.452 8.036-1.166 7.577-.68 6.798-.277 5.843 .032 4.737 .34 3.63 .497 2.585 .497 1.633 .497 .953 .33 .403 0 0M3.636 11.336C2.023 12.57 .111 13.196-2.045 13.196-3.436 13.196-4.716 12.976-5.849 12.542-7.553 11.903-8.93 10.888-9.942 9.524-11.079 7.99-11.655 6.199-11.655 4.199-11.655 2.476-11.207 .878-10.324-.552-9.414-2.033-8.138-3.157-6.529-3.891-5.207-4.493-3.8-4.8-2.351-4.8-1.245-4.8-.13-4.622 .961-4.27 2.748-3.691 4.216-2.725 5.326-1.396 6.64 .172 7.306 1.977 7.306 3.967 7.306 5.315 6.97 6.679 6.307 8.021 5.629 9.368 4.732 10.482 3.636 11.336" fill="#01608a"/>
<path transform="matrix(1,0,0,-1,77.6172,429.2336)" d="M0 0C-.025 .034-.109 .178-.167 .633-.359 2.175-.458 4.001-.458 6.06-.458 7.651-.365 9.016-.181 10.109-.098 10.571 .095 10.911 .403 11.145 .716 11.375 .922 11.574 1.034 11.752 1.156 11.946 1.217 12.193 1.217 12.489 1.217 13.747-.054 14.385-2.56 14.385-3.952 14.385-4.899 14.194-5.456 13.804-5.896 13.5-6.317 12.929-6.745 12.058L-7.159 11.217-8.883 7.855C-9.084 7.461-9.209 7.309-9.267 7.254-9.307 7.215-9.348 7.188-9.435 7.188-9.493 7.188-9.572 7.199-9.686 7.227-9.726 7.271-9.859 7.444-10.215 8.104L-12.756 12.784C-12.998 13.242-13.184 13.542-13.324 13.701-13.479 13.878-13.689 14.019-13.947 14.118-14.422 14.305-15.184 14.396-16.277 14.396-16.704 14.396-17.225 14.358-17.84 14.277-18.459 14.199-18.953 14.103-19.32 13.995-19.736 13.88-20.078 13.681-20.332 13.402-20.602 13.107-20.739 12.771-20.739 12.404-20.739 11.831-20.386 11.374-19.697 11.045-19.383 10.888-19.271 10.807-19.232 10.773-19.192 10.738-19.129 10.664-19.064 10.518-18.936 10.221-18.783 9.533-18.783 7.942-18.783 6.887-18.815 5.617-18.881 4.137-18.946 2.658-19.015 1.594-19.088 .946-19.167 .193-19.254-.091-19.299-.192-19.362-.331-19.491-.446-19.69-.536-20.298-.827-20.479-.969-20.565-1.057-20.73-1.218-20.812-1.461-20.812-1.777-20.812-2.873-19.709-3.429-17.536-3.429-16.589-3.429-13.71-3.429-13.71-1.74-13.71-1.155-14.023-.872-14.286-.736-14.833-.457-14.962-.362-14.984-.344-15.019-.312-15.071-.243-15.115-.104-15.165 .082-15.227 .52-15.227 1.535-15.227 2.346-15.198 3.229-15.141 4.183-15.133 4.312-15.102 4.531-15.03 4.531-14.987 4.531-14.828 4.43-14.624 3.963L-13.011 .332C-12.795-.155-12.526-.711-12.201-1.337-11.757-2.192-11.614-2.396-11.539-2.477-11.342-2.7-11.096-2.816-10.824-2.816-10.536-2.816-10.28-2.681-10.064-2.411-9.894-2.201-9.68-1.813-9.41-1.222L-7.944 2.064C-7.526 2.986-7.214 3.602-7.015 3.895-6.945 4-6.818 4.165-6.639 4.165-6.607 4.165-6.573 4.159-6.538 4.148-6.509 4.05-6.46 3.765-6.46 2.953-6.46 1.799-6.499 .977-6.573 .511-6.653 .004-6.791-.201-6.894-.284-7.465-.753-7.629-.933-7.703-1.027-7.844-1.211-7.915-1.439-7.915-1.703-7.915-2.175-7.681-2.808-6.561-3.134-5.854-3.339-4.817-3.439-3.392-3.439-2.48-3.439-1.807-3.42-1.371-3.379-.915-3.337-.475-3.245-.07-3.109 1.055-2.757 1.291-2.092 1.291-1.594 1.291-1.162 1.089-.8 .707-.546 .175-.196 .035-.048 0 0" fill="#01608a"/>
<path transform="matrix(1,0,0,-1,88.1313,424.8616)" d="M0 0C.015 .087 .093 .392 .487 1.349 .688 1.848 .806 2.134 .846 2.229 .983 2.609 1.146 2.837 1.281 2.837 1.35 2.837 1.426 2.79 1.51 2.695 1.599 2.598 1.775 2.359 2.106 1.784 2.915 .395 2.979 .039 3.016 .039H3.017C3.016 .039 2.938-.014 2.638-.014H.242C.115-.014 .042 .001 .011 .001 .006 .001 .003 .001 0 0M12.334-4.611C12.104-4.575 11.93-4.505 11.832-4.411 11.767-4.347 11.614-4.156 11.35-3.606L9.039 1.345C7.012 5.674 5.497 8.226 4.41 9.142 3.603 9.833 2.74 10.184 1.843 10.184 .887 10.184 .086 9.864-.53 9.239-.837 8.94-1.041 8.623-1.135 8.294-1.22 7.987-1.267 7.482-1.274 6.752-1.282 6.128-1.39 5.478-1.596 4.821-1.806 4.147-2.232 3.113-2.859 1.746L-4.583-2.031C-5.074-3.111-5.453-3.818-5.709-4.136-5.942-4.425-6.3-4.655-6.771-4.822-7.151-4.955-7.415-5.107-7.579-5.287-7.76-5.485-7.851-5.754-7.851-6.088-7.851-6.812-7.477-7.307-6.767-7.519-6.112-7.709-5.131-7.801-3.769-7.801-2.828-7.801 .033-7.801 .033-6.026 .033-5.447-.312-5.027-.934-4.845-1.407-4.692-1.507-4.637-1.495-4.536-1.495-4.387-1.456-4.227-1.378-4.059-1.288-3.866-1.208-3.787-1.156-3.756-1.115-3.73-.841-3.605 .621-3.605 1.894-3.605 2.886-3.653 3.568-3.749 4.203-3.843 4.289-4.131 4.289-4.4 4.289-4.477 4.289-4.638 3.931-4.761 3.535-4.892 3.263-5.041 3.097-5.217 2.914-5.411 2.822-5.677 2.822-6.003 2.822-6.411 2.977-6.764 3.283-7.048 3.567-7.315 3.949-7.492 4.417-7.575 5.327-7.735 6.686-7.812 8.567-7.812 10.251-7.812 11.438-7.679 12.198-7.402 13.259-7.015 13.481-6.328 13.481-5.818 13.481-5.436 13.333-4.768 12.334-4.611" fill="#01608a"/>
<path transform="matrix(1,0,0,-1,110.9824,422.18583)" d="M0 0C-.006 .011-.052 .104-.052 .477L.083 3.326C.101 3.73 .187 3.87 .223 3.91 .289 3.984 .443 4.025 .658 4.025 1.24 4.025 2.015 3.813 2.015 1.982 2.015 1.251 1.877 .723 1.604 .413 1.343 .115 .897-.036 .279-.036 .074-.036 .005 0 .001 0ZM10.795-7.395C10.176-7.215 10.015-7.072 9.981-7.033 9.947-6.995 9.829-6.815 9.738-6.154 9.56-4.802 9.265-3.816 8.836-3.14 8.399-2.457 7.713-1.941 6.795-1.607 6.557-1.521 6.403-1.412 6.403-1.332 6.403-1.297 6.471-1.225 6.618-1.15 7.299-.815 7.842-.307 8.231 .362 8.616 1.023 8.812 1.766 8.812 2.569 8.812 4.015 8.25 5.162 7.142 5.98 5.95 6.855 4.431 7.3 2.625 7.3 2.312 7.3 1.762 7.271 .975 7.213-.238 7.116-1.208 7.068-1.934 7.068-2.363 7.068-2.677 7.077-2.875 7.091-3.965 7.173-4.645 7.214-4.917 7.214-5.549 7.214-6.061 7.165-6.437 7.069-6.907 6.951-7.282 6.757-7.551 6.495-7.847 6.211-7.997 5.869-7.997 5.479-7.997 5.172-7.909 4.915-7.738 4.715-7.582 4.535-7.313 4.355-6.918 4.168-6.625 4.021-6.437 3.793-6.349 3.473-6.275 3.211-6.187 2.614-6.187 1.249-6.187-2.291-6.208-4.377-6.249-4.955-6.307-5.894-6.412-6.327-6.49-6.525-6.593-6.786-6.796-7.018-7.098-7.217-7.463-7.46-7.675-7.636-7.786-7.783-7.918-7.958-7.985-8.181-7.985-8.446-7.985-9.813-6.402-10.477-3.145-10.477-1.478-10.477-.315-10.36 .409-10.124 1.433-9.787 1.647-9.152 1.647-8.679 1.647-8.292 1.492-7.745 .753-7.339 .487-7.187 .395-7.102 .367-7.069 .32-7.02 .283-6.938 .258-6.835 .134-6.285 .071-5.493 .071-4.484 .071-3.622 .141-3.374 .17-3.309 .207-3.229 .355-3.212 .459-3.212 .915-3.234 1.249-3.369 1.479-3.623 1.731-3.898 1.947-4.403 2.122-5.122 2.423-6.358 2.676-7.242 2.898-7.826 3.125-8.424 3.407-8.932 3.737-9.334 4.483-10.247 5.713-10.709 7.394-10.709 8.624-10.709 9.614-10.538 10.341-10.201 10.696-10.032 10.99-9.798 11.217-9.503 11.454-9.189 11.575-8.868 11.575-8.545 11.575-8.286 11.503-8.048 11.363-7.837 11.218-7.619 11.03-7.471 10.795-7.395" fill="#01608a"/>
<path transform="matrix(1,0,0,-1,137.8667,414.71513)" d="M0 0C-.215 0-.452-.035-.736-.108-1.28-.265-1.892-.356-2.544-.379H-8.986C-9.339-.379-9.651-.365-9.921-.333-10.196-.3-10.547-.241-10.966-.156-11.198-.1-11.413-.072-11.603-.072-12.308-.072-13.012-.536-13.691-1.447-14.089-1.979-14.412-2.571-14.651-3.207-14.892-3.845-15.013-4.444-15.013-4.987-15.013-5.577-14.843-6.072-14.508-6.459-14.163-6.861-13.716-7.064-13.18-7.064-12.718-7.064-12.246-6.883-11.775-6.524-11.396-6.232-10.933-5.667-10.36-4.796-10.196-4.549-9.948-4.253-9.696-4.253-9.637-4.253-9.526-4.253-9.432-4.51-9.362-4.698-9.28-5.104-9.28-5.965-9.28-7.006-9.308-8.234-9.365-9.649-9.422-11.063-9.482-12.086-9.547-12.718-9.633-13.563-9.735-13.92-9.806-14.07-9.885-14.238-10.029-14.351-10.251-14.415-11.039-14.654-11.137-14.71-11.197-14.745-11.583-14.989-11.785-15.352-11.785-15.795-11.785-16.323-11.533-17.039-10.336-17.439-9.318-17.79-7.813-17.958-5.734-17.958-4.036-17.958-2.803-17.814-1.966-17.514-.807-17.098-.564-16.408-.564-15.904-.564-15.527-.673-15.221-.888-14.995-1.081-14.793-1.41-14.595-1.895-14.389-2.229-14.249-2.448-14.062-2.562-13.815-2.648-13.627-2.752-13.233-2.752-12.421V-5.574C-2.752-4.921-2.664-4.616-2.591-4.473-2.514-4.325-2.409-4.265-2.225-4.265-2.091-4.265-1.983-4.31-1.887-4.407-1.812-4.48-1.639-4.697-1.305-5.326-.969-5.926-.633-6.349-.278-6.616 .095-6.897 .539-7.041 1.039-7.041 1.562-7.041 2.021-6.897 2.403-6.611 2.917-6.224 3.177-5.615 3.177-4.803 3.177-3.713 2.847-2.64 2.193-1.614 1.51-.543 .772 0 0 0" fill="#01608a"/>
<path transform="matrix(1,0,0,-1,166.2725,425.9866)" d="M0 0C-.372 0-.685-.109-.926-.324-1.145-.517-1.371-.86-1.62-1.378-1.979-2.134-2.441-2.658-2.995-2.938-3.564-3.228-4.444-3.374-5.613-3.374-6.374-3.374-6.915-3.33-7.221-3.244-7.554-3.152-7.592-3.008-7.606-2.954-7.661-2.77-7.709-2.389-7.76-1.812-7.812-1.217-7.838-.731-7.838-.355-7.838 .391-7.739 .675-7.68 .776-7.652 .824-7.569 .967-7.202 .967-6.405 .967-6.005 .626-5.904-.137-5.838-.651-5.742-.981-5.599-1.174-5.429-1.4-5.15-1.516-4.769-1.516-4.199-1.516-3.753-1.222-3.481-.665-3.063 .198-2.85 1.31-2.85 2.642-2.85 3.311-2.912 3.962-3.034 4.579-3.161 5.229-3.321 5.679-3.524 5.959-3.822 6.361-4.195 6.565-4.634 6.565-4.94 6.565-5.211 6.466-5.434 6.276-5.643 6.108-5.789 5.905-5.87 5.674-5.94 5.475-6.002 5.135-6.063 4.632-6.105 4.255-6.202 4.116-6.256 4.066-6.347 3.982-6.536 3.936-6.786 3.936-7.689 3.936-7.867 4.041-7.883 4.053-7.884 4.054-7.997 4.159-7.997 4.706-7.997 5.933-7.987 6.697-7.966 6.997-7.951 7.246-7.902 7.44-7.823 7.573-7.759 7.678-7.491 7.922-6.383 7.922-5.163 7.922-4.286 7.835-3.776 7.665-3.292 7.503-2.901 7.187-2.577 6.696-2.294 6.268-2.075 6.008-1.894 5.875-1.69 5.725-1.414 5.65-1.077 5.65-.58 5.65-.184 5.847 .103 6.237 .365 6.598 .499 7.083 .499 7.679 .499 8.794 .208 9.762-.366 10.552-.753 11.095-1.217 11.37-1.749 11.37-1.88 11.37-2.042 11.341-2.242 11.283-2.77 11.128-3.323 11.023-3.887 10.97-4.465 10.919-5.382 10.893-6.64 10.893H-12.923C-13.865 10.893-14.492 10.854-14.85 10.773-15.173 10.689-15.437 10.515-15.635 10.254-15.831 9.994-15.93 9.695-15.93 9.365-15.93 8.746-15.603 8.309-15.005 8.131-14.622 8.021-14.504 7.955-14.482 7.94-14.454 7.921-14.394 7.866-14.323 7.724-13.954 6.948-13.766 4.991-13.766 1.908-13.766-.146-13.9-1.798-14.164-2.999-14.218-3.256-14.292-3.443-14.38-3.56-14.464-3.672-14.606-3.77-14.805-3.855-15.322-4.094-15.492-4.24-15.58-4.334-15.734-4.503-15.809-4.742-15.809-5.062-15.809-5.492-15.649-5.847-15.348-6.085-15.063-6.314-14.671-6.431-14.183-6.431H-3.825C-2.973-6.455-2.286-6.514-1.778-6.61-1.46-6.663-1.217-6.687-1.053-6.687-.792-6.687-.571-6.617-.392-6.479-.239-6.36-.066-6.155 .145-5.844 .525-5.251 .849-4.569 1.105-3.819 1.368-3.06 1.501-2.408 1.501-1.883 1.501-1.366 1.368-.927 1.103-.573 .814-.193 .444 0 0 0" fill="#01608a"/>
<path transform="matrix(1,0,0,-1,188.7173,415.071)" d="M0 0C-.506 .158-1.373 .233-2.651 .233-3.641 .233-4.317 .191-4.722 .106-6.092-.182-6.379-.941-6.379-1.527-6.379-1.873-6.292-2.166-6.121-2.394-5.961-2.61-5.703-2.804-5.331-2.987-5.018-3.136-4.82-3.351-4.724-3.641-4.647-3.877-4.558-4.417-4.558-5.646-4.558-5.891-4.582-6.687-4.875-6.687-4.919-6.687-5.173-6.654-5.9-6.019L-11.988-.688C-12.432-.3-12.811-.054-13.154 .066-13.487 .179-13.986 .233-14.68 .233-15.825 .233-16.646 .2-17.125 .134-18.643-.096-19.411-.699-19.411-1.66-19.411-1.983-19.314-2.262-19.122-2.488-18.949-2.696-18.665-2.895-18.255-3.095-17.979-3.23-17.787-3.365-17.679-3.498-17.57-3.633-17.474-3.856-17.397-4.16-17.161-5.085-17.04-6.605-17.04-8.678-17.04-10.637-17.11-12.15-17.246-13.17-17.313-13.652-17.491-13.972-17.789-14.149-18.231-14.412-18.502-14.613-18.645-14.785-18.805-14.982-18.885-15.26-18.885-15.609-18.885-16.064-18.697-16.696-17.795-17.125-17.149-17.434-16.241-17.591-15.096-17.591-12.46-17.591-11.123-16.913-11.123-15.572-11.123-15.011-11.458-14.563-12.117-14.237-12.43-14.082-12.631-13.845-12.732-13.511-12.848-13.132-12.907-12.381-12.907-11.282-12.907-9.991-12.677-9.533-12.48-9.533-12.338-9.533-12.014-9.611-11.434-10.136L-4.184-16.63C-3.741-17.029-3.426-17.283-3.218-17.403-2.986-17.535-2.712-17.602-2.406-17.602-1.898-17.602-1.226-17.357-.902-16.186-.714-15.516-.626-14.471-.633-12.991L-.646-10.487V-6.505C-.637-5.051-.53-4.063-.329-3.564-.267-3.416-.212-3.348-.171-3.312-.145-3.287-.05-3.216 .238-3.088 1.154-2.689 1.346-2.058 1.346-1.599 1.346-1.056 1.112-.338 0 0" fill="#01608a"/>
<path transform="matrix(1,0,0,-1,209.8682,423.5071)" d="M0 0C-.961 .294-2.161 .442-3.566 .442-4.877 .442-6.055 .281-7.073-.037-8.367-.45-8.638-1.215-8.638-1.781-8.638-2.213-8.489-2.575-8.194-2.858-7.902-3.142-7.535-3.285-7.099-3.285-6.731-3.285-6.513-3.29-6.331-3.358-6.278-3.397-6.121-3.511-6.121-3.934-6.121-4.292-6.226-4.572-6.442-4.795-6.652-5.014-6.917-5.12-7.257-5.12-7.712-5.12-8.181-4.983-8.651-4.715-9.139-4.438-9.549-4.076-9.899-3.614-10.847-2.305-11.329-.693-11.329 1.176-11.329 2.408-11.037 3.395-10.464 4.107-9.897 4.808-9.152 5.149-8.187 5.149-7.11 5.149-6.18 4.648-5.339 3.615-4.597 2.706-4.376 2.495-4.269 2.413-3.759 2.031-3.227 1.837-2.684 1.837-2.009 1.837-1.456 2.094-1.04 2.601-.639 3.088-.436 3.728-.436 4.501-.436 5.594-.794 6.614-1.504 7.532-1.981 8.149-2.504 8.461-3.064 8.461-3.277 8.461-3.487 8.427-3.697 8.357-4.358 8.122-4.56 8.096-4.617 8.096-4.674 8.096-4.862 8.114-5.387 8.29-6.355 8.598-7.403 8.754-8.504 8.754-10.251 8.754-11.83 8.398-13.196 7.694-14.768 6.897-16.006 5.746-16.88 4.273-17.708 2.901-18.125 1.431-18.125-.096-18.125-1.599-17.775-3.019-17.086-4.314-16.263-5.87-15.043-7.099-13.463-7.967-11.931-8.812-10.223-9.241-8.393-9.241-7.276-9.241-6.193-9.068-5.17-8.725-4.144-8.376-3.255-7.888-2.528-7.269-1.464-6.36-.74-5.213-.374-3.857-.269-3.465-.199-3.38-.192-3.372-.19-3.37-.118-3.313 .18-3.271 .578-3.222 .909-3.06 1.167-2.79 1.425-2.514 1.557-2.184 1.557-1.808 1.557-1.203 1.287-.4 0 0" fill="#01608a"/>
<path transform="matrix(1,0,0,-1,222.1841,418.13993)" d="M0 0C.644 .327 .836 .49 .926 .586 1.092 .765 1.176 1.017 1.176 1.334 1.176 1.944 .843 2.737-.742 3.054-1.583 3.219-2.489 3.302-3.433 3.302-4.496 3.302-5.558 3.198-6.585 2.992-7.493 2.818-8.113 2.624-8.483 2.395-8.914 2.131-9.142 1.747-9.142 1.286-9.142 .986-9.063 .732-8.905 .528-8.767 .354-8.524 .15-8.15-.097-7.784-.323-7.552-.572-7.46-.837-7.322-1.218-7.161-2.204-7.161-4.74-7.161-7.717-7.237-9.69-7.388-10.604-7.447-10.935-7.631-11.193-7.949-11.389-8.57-11.766-8.885-12.202-8.885-12.688-8.885-14.522-5.646-14.522-4.582-14.522-3.012-14.522-1.657-14.39-.556-14.122 .593-13.838 1.176-13.281 1.176-12.468 1.176-12.056 1.005-11.486 .195-11.12-.142-10.952-.282-10.833-.335-10.778-.414-10.692-.477-10.558-.519-10.386-.667-9.661-.744-7.737-.744-4.669-.744-2.854-.685-1.623-.571-1.009-.473-.481-.282-.142 0 0" fill="#01608a"/>
<path transform="matrix(1,0,0,-1,244.4736,415.071)" d="M0 0C-.506 .158-1.373 .233-2.651 .233-3.641 .233-4.317 .191-4.722 .106-6.092-.182-6.379-.941-6.379-1.527-6.379-1.873-6.292-2.166-6.121-2.394-5.961-2.61-5.703-2.804-5.331-2.987-5.018-3.136-4.82-3.351-4.724-3.641-4.647-3.877-4.558-4.417-4.558-5.646-4.558-5.891-4.582-6.687-4.875-6.687-4.919-6.687-5.173-6.654-5.9-6.019L-11.988-.688C-12.432-.3-12.811-.054-13.154 .066-13.487 .179-13.986 .233-14.68 .233-15.825 .233-16.646 .2-17.125 .134-18.643-.096-19.411-.699-19.411-1.66-19.411-1.983-19.314-2.262-19.122-2.488-18.949-2.696-18.665-2.895-18.255-3.095-17.979-3.23-17.787-3.365-17.679-3.498-17.57-3.633-17.474-3.856-17.397-4.16-17.161-5.085-17.04-6.605-17.04-8.678-17.04-10.637-17.11-12.15-17.246-13.17-17.313-13.652-17.491-13.972-17.789-14.149-18.231-14.412-18.502-14.613-18.645-14.785-18.804-14.982-18.885-15.26-18.885-15.609-18.885-16.064-18.697-16.696-17.795-17.125-17.149-17.434-16.241-17.591-15.096-17.591-12.46-17.591-11.123-16.913-11.123-15.572-11.123-15.011-11.458-14.563-12.117-14.237-12.43-14.082-12.631-13.845-12.732-13.511-12.848-13.132-12.907-12.381-12.907-11.282-12.907-9.991-12.677-9.533-12.48-9.533-12.338-9.533-12.014-9.611-11.434-10.136L-4.184-16.63C-3.741-17.029-3.426-17.283-3.218-17.403-2.986-17.535-2.712-17.602-2.406-17.602-1.898-17.602-1.226-17.357-.902-16.186-.714-15.516-.626-14.471-.633-12.991L-.646-10.487V-6.505C-.637-5.051-.53-4.063-.329-3.564-.267-3.416-.212-3.348-.171-3.312-.145-3.287-.05-3.216 .239-3.088 1.154-2.689 1.346-2.058 1.346-1.599 1.346-1.056 1.112-.338 0 0" fill="#01608a"/>
<path transform="matrix(1,0,0,-1,263.4639,425.9866)" d="M0 0C-.372 0-.685-.109-.928-.325-1.143-.517-1.368-.86-1.62-1.38-1.977-2.134-2.438-2.658-2.992-2.938-3.562-3.228-4.441-3.374-5.61-3.374-6.37-3.374-6.913-3.33-7.22-3.244-7.55-3.152-7.589-3.008-7.605-2.954-7.657-2.77-7.708-2.389-7.758-1.812-7.811-1.217-7.837-.731-7.837-.355-7.837 .389-7.736 .675-7.679 .775-7.648 .828-7.567 .967-7.2 .967-6.403 .967-6.002 .626-5.902-.137-5.836-.653-5.737-.984-5.597-1.172-5.429-1.4-5.148-1.516-4.768-1.516-4.196-1.516-3.752-1.222-3.479-.664-3.06 .202-2.848 1.314-2.848 2.642-2.848 3.311-2.909 3.962-3.032 4.579-3.159 5.229-3.318 5.679-3.522 5.96-3.822 6.361-4.194 6.565-4.632 6.565-4.938 6.565-5.21 6.465-5.431 6.277-5.639 6.108-5.788 5.906-5.869 5.674-5.939 5.475-6.002 5.135-6.062 4.631-6.103 4.256-6.199 4.117-6.256 4.066-6.346 3.981-6.534 3.936-6.784 3.936-7.688 3.936-7.865 4.042-7.88 4.052-7.883 4.053-7.995 4.151-7.995 4.706-7.995 5.933-7.986 6.696-7.964 6.997-7.948 7.246-7.898 7.44-7.821 7.573-7.758 7.678-7.491 7.922-6.381 7.922-5.162 7.922-4.284 7.835-3.774 7.665-3.296 7.505-2.892 7.179-2.574 6.697-2.294 6.271-2.077 6.009-1.891 5.874-1.686 5.725-1.412 5.65-1.075 5.65-.584 5.65-.177 5.854 .103 6.236 .372 6.601 .501 7.073 .501 7.679 .501 8.792 .21 9.76-.365 10.551-.753 11.095-1.217 11.37-1.747 11.37-1.88 11.37-2.042 11.341-2.242 11.283-2.769 11.129-3.323 11.023-3.885 10.97-4.461 10.919-5.381 10.893-6.637 10.893H-12.922C-13.863 10.893-14.492 10.854-14.846 10.773-15.172 10.689-15.435 10.515-15.632 10.254-15.829 9.994-15.928 9.695-15.928 9.365-15.928 8.746-15.6 8.309-15.004 8.131-14.621 8.021-14.502 7.955-14.479 7.939-14.45 7.921-14.391 7.866-14.321 7.724-13.953 6.949-13.765 4.993-13.765 1.908-13.765-.149-13.898-1.801-14.161-2.999-14.216-3.253-14.291-3.442-14.38-3.56-14.463-3.672-14.604-3.77-14.803-3.855-15.319-4.094-15.492-4.24-15.58-4.335-15.731-4.503-15.807-4.748-15.807-5.062-15.807-5.492-15.647-5.847-15.345-6.085-15.061-6.314-14.669-6.431-14.181-6.431H-3.822C-2.973-6.455-2.285-6.514-1.775-6.61-1.458-6.663-1.217-6.687-1.051-6.687-.792-6.687-.571-6.617-.394-6.481-.238-6.363-.063-6.155 .145-5.847 .521-5.262 .845-4.58 1.108-3.818 1.375-3.042 1.504-2.409 1.504-1.883 1.504-1.365 1.368-.924 1.104-.574 .819-.193 .447 0 0 0" fill="#01608a"/>
<path transform="matrix(1,0,0,-1,282.4414,425.9866)" d="M0 0C-.372 0-.685-.109-.928-.325-1.143-.517-1.368-.86-1.62-1.38-1.977-2.134-2.439-2.658-2.993-2.938-3.562-3.228-4.442-3.374-5.611-3.374-6.37-3.374-6.913-3.33-7.22-3.244-7.55-3.152-7.59-3.008-7.605-2.954-7.658-2.77-7.708-2.389-7.758-1.812-7.811-1.217-7.837-.731-7.837-.355-7.837 .389-7.736 .675-7.679 .775-7.649 .828-7.568 .967-7.2 .967-6.403 .967-6.002 .626-5.902-.137-5.836-.653-5.738-.984-5.598-1.172-5.429-1.4-5.149-1.516-4.768-1.516-4.197-1.516-3.752-1.222-3.479-.664-3.061 .202-2.848 1.314-2.848 2.642-2.848 3.311-2.909 3.962-3.032 4.579-3.159 5.229-3.319 5.679-3.522 5.96-3.822 6.361-4.194 6.565-4.632 6.565-4.938 6.565-5.21 6.465-5.431 6.277-5.639 6.108-5.788 5.906-5.869 5.674-5.939 5.475-6.002 5.135-6.062 4.631-6.104 4.256-6.2 4.117-6.256 4.066-6.346 3.981-6.535 3.936-6.784 3.936-7.688 3.936-7.866 4.042-7.881 4.052-7.883 4.053-7.995 4.151-7.995 4.706-7.995 5.933-7.986 6.696-7.964 6.997-7.949 7.246-7.898 7.44-7.822 7.573-7.758 7.678-7.489 7.922-6.381 7.922-5.162 7.922-4.284 7.835-3.774 7.665-3.297 7.505-2.892 7.179-2.574 6.697-2.294 6.271-2.078 6.009-1.892 5.874-1.686 5.725-1.412 5.65-1.075 5.65-.584 5.65-.177 5.854 .103 6.236 .368 6.597 .501 7.082 .501 7.679 .501 8.792 .21 9.76-.366 10.552-.753 11.095-1.217 11.37-1.747 11.37-1.88 11.37-2.042 11.341-2.242 11.283-2.769 11.129-3.323 11.023-3.886 10.97-4.461 10.919-5.381 10.893-6.637 10.893H-12.922C-13.864 10.893-14.492 10.854-14.847 10.773-15.173 10.689-15.436 10.515-15.632 10.254-15.83 9.994-15.928 9.695-15.928 9.365-15.928 8.746-15.6 8.309-15.004 8.131-14.621 8.021-14.503 7.955-14.479 7.939-14.45 7.921-14.391 7.866-14.321 7.724-13.954 6.949-13.765 4.993-13.765 1.908-13.765-.149-13.898-1.801-14.161-2.999-14.216-3.253-14.291-3.442-14.38-3.56-14.463-3.672-14.604-3.77-14.803-3.855-15.319-4.094-15.492-4.24-15.58-4.335-15.731-4.503-15.808-4.748-15.808-5.062-15.808-5.492-15.648-5.847-15.346-6.085-15.061-6.314-14.669-6.431-14.181-6.431H-3.822C-2.973-6.455-2.286-6.514-1.775-6.61-1.458-6.663-1.217-6.687-1.051-6.687-.792-6.687-.571-6.617-.394-6.481-.239-6.363-.063-6.155 .145-5.847 .521-5.262 .845-4.58 1.107-3.818 1.375-3.042 1.504-2.409 1.504-1.883 1.504-1.365 1.368-.924 1.103-.574 .819-.193 .446 0 0 0" fill="#01608a"/>
<path transform="matrix(1,0,0,-1,293.4351,421.70924)" d="M0 0 .133 2.848C.153 3.255 .239 3.393 .276 3.435 .339 3.507 .497 3.548 .709 3.548 1.292 3.548 2.066 3.336 2.066 1.506 2.066 .776 1.929 .247 1.655-.065 1.395-.361 .95-.513 .331-.513 .127-.513 .057-.477 .05-.477 .044-.466 0-.378 0 0M10.845-7.871C10.225-7.691 10.065-7.549 10.033-7.511 9.998-7.472 9.881-7.292 9.79-6.631 9.615-5.299 9.31-4.285 8.885-3.616 8.452-2.934 7.765-2.418 6.845-2.084 6.607-1.997 6.454-1.889 6.454-1.809 6.454-1.773 6.521-1.701 6.667-1.628 7.351-1.292 7.894-.783 8.282-.114 8.668 .547 8.864 1.289 8.864 2.093 8.864 3.538 8.301 4.686 7.193 5.503 6 6.379 4.481 6.823 2.677 6.823 2.362 6.823 1.812 6.795 1.024 6.737-.186 6.639-1.156 6.591-1.883 6.591-2.312 6.591-2.625 6.6-2.824 6.614-3.914 6.696-4.595 6.738-4.866 6.738-5.499 6.738-6.011 6.688-6.388 6.592-6.856 6.474-7.233 6.28-7.502 6.019-7.798 5.734-7.946 5.393-7.946 5.002-7.946 4.696-7.859 4.439-7.686 4.239-7.531 4.059-7.261 3.878-6.867 3.69-6.574 3.544-6.388 3.317-6.298 2.997-6.224 2.734-6.136 2.134-6.136 .772-6.136-3.616-6.169-5.023-6.197-5.432-6.246-6.186-6.327-6.714-6.438-7.002-6.541-7.262-6.745-7.493-7.049-7.693-7.404-7.932-7.623-8.112-7.736-8.26-7.868-8.434-7.934-8.656-7.934-8.923-7.934-10.29-6.351-10.953-3.093-10.953-1.427-10.953-.265-10.837 .459-10.601 1.484-10.264 1.699-9.629 1.699-9.155 1.699-8.769 1.543-8.223 .806-7.815 .539-7.663 .446-7.578 .416-7.545 .372-7.496 .335-7.416 .311-7.312 .186-6.766 .123-5.975 .123-4.961 .123-4.096 .192-3.851 .221-3.785 .258-3.705 .407-3.688 .51-3.688 .965-3.711 1.3-3.846 1.532-4.1 1.782-4.375 1.999-4.88 2.174-5.599 2.474-6.835 2.728-7.719 2.949-8.301 3.174-8.9 3.457-9.408 3.789-9.811 4.534-10.724 5.764-11.186 7.445-11.186 8.675-11.186 9.667-11.015 10.391-10.678 10.744-10.511 11.04-10.277 11.269-9.977 11.505-9.664 11.626-9.342 11.626-9.021 11.626-8.765 11.554-8.525 11.414-8.315 11.272-8.097 11.083-7.947 10.845-7.871" fill="#01608a"/>
<path transform="matrix(1,0,0,-1,315.7461,418.13993)" d="M0 0C.644 .327 .837 .49 .926 .586 1.093 .765 1.176 1.017 1.176 1.334 1.176 1.944 .843 2.737-.742 3.054-1.582 3.219-2.489 3.302-3.433 3.302-4.496 3.302-5.558 3.198-6.585 2.992-7.493 2.818-8.112 2.624-8.482 2.395-8.914 2.131-9.142 1.747-9.142 1.286-9.142 .986-9.063 .732-8.905 .528-8.768 .354-8.524 .15-8.149-.097-7.784-.323-7.552-.572-7.46-.837-7.322-1.218-7.16-2.204-7.16-4.74-7.16-7.717-7.237-9.69-7.388-10.604-7.447-10.935-7.631-11.193-7.948-11.389-8.57-11.766-8.886-12.202-8.886-12.688-8.886-14.522-5.646-14.522-4.582-14.522-3.012-14.522-1.657-14.39-.556-14.122 .594-13.838 1.176-13.281 1.176-12.468 1.176-12.056 1.005-11.486 .195-11.12-.142-10.952-.282-10.833-.335-10.778-.413-10.692-.477-10.558-.519-10.386-.667-9.661-.744-7.737-.744-4.669-.744-2.854-.685-1.623-.571-1.009-.473-.481-.282-.142 0 0" fill="#01608a"/>
<path transform="matrix(1,0,0,-1,338.0361,415.071)" d="M0 0C-.506 .158-1.373 .233-2.651 .233-3.641 .233-4.317 .191-4.723 .106-6.093-.182-6.38-.941-6.38-1.527-6.38-1.873-6.292-2.166-6.121-2.394-5.961-2.61-5.703-2.804-5.331-2.987-5.018-3.136-4.821-3.351-4.725-3.641-4.647-3.877-4.559-4.417-4.559-5.646-4.559-5.891-4.582-6.687-4.876-6.687-4.919-6.687-5.173-6.654-5.9-6.019L-11.988-.688C-12.433-.3-12.811-.054-13.154 .066-13.487 .179-13.986 .233-14.681 .233-15.825 .233-16.646 .2-17.126 .134-18.643-.096-19.411-.699-19.411-1.66-19.411-1.983-19.314-2.262-19.122-2.488-18.949-2.696-18.665-2.895-18.255-3.095-17.979-3.23-17.787-3.365-17.68-3.498-17.57-3.633-17.474-3.856-17.397-4.16-17.161-5.085-17.04-6.605-17.04-8.678-17.04-10.637-17.11-12.15-17.246-13.17-17.314-13.652-17.491-13.972-17.789-14.149-18.231-14.412-18.503-14.613-18.645-14.785-18.805-14.982-18.886-15.26-18.886-15.609-18.886-16.064-18.697-16.696-17.796-17.125-17.149-17.434-16.241-17.591-15.097-17.591-12.461-17.591-11.123-16.913-11.123-15.572-11.123-15.011-11.458-14.563-12.117-14.237-12.43-14.082-12.632-13.845-12.732-13.511-12.849-13.132-12.907-12.381-12.907-11.282-12.907-9.991-12.678-9.533-12.48-9.533-12.338-9.533-12.015-9.611-11.434-10.136L-4.184-16.63C-3.741-17.029-3.427-17.283-3.219-17.403-2.986-17.535-2.713-17.602-2.406-17.602-1.898-17.602-1.227-17.357-.902-16.186-.714-15.516-.627-14.471-.633-12.991L-.646-10.487V-6.505C-.638-5.051-.53-4.063-.329-3.564-.268-3.416-.213-3.348-.171-3.312-.145-3.287-.051-3.216 .238-3.088 1.153-2.689 1.346-2.058 1.346-1.599 1.346-1.056 1.111-.338 0 0" fill="#01608a"/>
<path transform="matrix(1,0,0,-1,359.1846,423.5071)" d="M0 0C-.959 .294-2.158 .442-3.563 .442-4.877 .442-6.055 .281-7.07-.036-8.364-.449-8.636-1.214-8.636-1.781-8.636-2.213-8.487-2.575-8.191-2.858-7.9-3.142-7.532-3.285-7.097-3.285-6.729-3.285-6.511-3.29-6.329-3.358-6.276-3.397-6.118-3.511-6.118-3.934-6.118-4.292-6.224-4.572-6.438-4.794-6.65-5.013-6.92-5.12-7.257-5.12-7.712-5.12-8.181-4.983-8.651-4.715-9.135-4.439-9.556-4.067-9.896-3.614-10.847-2.303-11.328-.691-11.328 1.176-11.328 2.406-11.037 3.393-10.462 4.107-9.895 4.808-9.15 5.149-8.185 5.149-7.11 5.149-6.18 4.647-5.337 3.615-4.6 2.713-4.38 2.5-4.269 2.412-3.757 2.031-3.225 1.837-2.684 1.837-2.008 1.837-1.453 2.094-1.037 2.601-.637 3.089-.436 3.729-.436 4.501-.436 5.597-.795 6.617-1.504 7.532-1.977 8.148-2.502 8.461-3.063 8.461-3.274 8.461-3.485 8.427-3.695 8.357-4.358 8.122-4.56 8.096-4.614 8.096-4.672 8.096-4.859 8.114-5.388 8.29-6.354 8.598-7.403 8.754-8.502 8.754-10.252 8.754-11.83 8.398-13.196 7.694-14.768 6.897-16.007 5.746-16.88 4.273-17.705 2.904-18.123 1.435-18.123-.096-18.123-1.604-17.773-3.022-17.084-4.314-16.261-5.87-15.041-7.099-13.461-7.967-11.931-8.812-10.226-9.241-8.393-9.241-7.274-9.241-6.19-9.068-5.166-8.722-4.144-8.376-3.255-7.888-2.526-7.269-1.462-6.357-.737-5.211-.372-3.857-.265-3.46-.192-3.373-.194-3.373-.19-3.37-.118-3.313 .178-3.271 .576-3.222 .908-3.062 1.167-2.79 1.428-2.512 1.559-2.183 1.559-1.808 1.559-1.203 1.289-.4 0 0" fill="#01608a"/>
<path transform="matrix(1,0,0,-1,382.9541,421.738)" d="M0 0C-.499 .24-1.574 .601-3.29 1.107-4.379 1.42-4.93 1.855-4.93 2.401-4.93 2.666-4.838 2.863-4.639 3.023-4.425 3.196-4.124 3.284-3.743 3.284-2.888 3.284-1.99 2.852-1.075 1.998-.361 1.334 .094 .944 .312 .804 .569 .639 .893 .556 1.28 .556 1.765 .556 2.18 .751 2.518 1.136 2.839 1.508 3.003 1.967 3.003 2.5 3.003 3.346 2.677 4.238 2.035 5.152 1.359 6.115 .709 6.583 .046 6.583-.141 6.583-.317 6.552-.478 6.492-.98 6.31-1.097 6.292-1.104 6.29-1.149 6.29-1.239 6.3-1.403 6.351-2.782 6.772-3.925 6.985-4.797 6.985-6.837 6.985-8.593 6.381-10.007 5.191-10.654 4.668-11.16 4.038-11.511 3.319-11.865 2.599-12.045 1.846-12.045 1.082-12.045-.456-11.359-1.843-10.007-3.044-9.457-3.527-8.857-3.929-8.227-4.244-7.601-4.557-6.69-4.904-5.515-5.272-4.896-5.462-4.45-5.667-4.187-5.877-3.969-6.055-3.866-6.244-3.866-6.473-3.866-6.621-3.908-6.843-4.273-7.063-4.598-7.255-5.035-7.353-5.578-7.353-6.232-7.353-6.872-7.21-7.48-6.93-8.078-6.656-8.518-6.311-8.785-5.907-9.654-4.582-9.912-4.263-10.024-4.146-10.37-3.759-10.751-3.564-11.153-3.564-11.559-3.564-11.911-3.741-12.174-4.075-12.38-4.335-12.484-4.707-12.484-5.177-12.484-6.046-12.32-6.944-11.996-7.845-11.655-8.795-11.27-9.406-10.813-9.709-10.263-10.071-9.409-10.371-8.2-10.629-7.027-10.88-5.894-11.01-4.832-11.01-2.43-11.01-.453-10.418 1.046-9.254 2.539-8.095 3.297-6.581 3.297-4.75 3.297-2.664 2.188-1.066 0 0" fill="#01608a"/>
<path transform="matrix(1,0,0,-1,404.0547,425.9866)" d="M0 0C-.372 0-.686-.109-.926-.324-1.145-.517-1.37-.86-1.62-1.378-1.979-2.134-2.441-2.658-2.995-2.938-3.563-3.228-4.444-3.374-5.613-3.374-6.375-3.374-6.915-3.33-7.22-3.244-7.553-3.152-7.592-3.008-7.607-2.954-7.66-2.77-7.71-2.389-7.758-1.812-7.811-1.217-7.837-.731-7.837-.355-7.837 .393-7.736 .675-7.678 .778-7.651 .825-7.57 .967-7.202 .967-6.405 .967-6.005 .626-5.904-.137-5.839-.649-5.742-.979-5.598-1.175-5.427-1.4-5.148-1.516-4.768-1.516-4.199-1.516-3.754-1.222-3.479-.664-3.063 .199-2.851 1.311-2.851 2.642-2.851 3.311-2.911 3.962-3.034 4.579-3.161 5.229-3.321 5.679-3.522 5.959-3.82 6.361-4.194 6.565-4.635 6.565-4.938 6.565-5.21 6.466-5.434 6.275-5.642 6.107-5.788 5.905-5.869 5.674-5.939 5.475-6.003 5.135-6.062 4.633-6.105 4.254-6.202 4.116-6.254 4.067-6.349 3.981-6.532 3.936-6.786 3.936-7.686 3.936-7.865 4.041-7.883 4.053-7.885 4.054-7.997 4.159-7.997 4.706-7.997 5.934-7.986 6.698-7.966 6.997-7.951 7.246-7.9 7.44-7.821 7.573-7.758 7.678-7.491 7.922-6.384 7.922-5.164 7.922-4.286 7.835-3.776 7.665-3.293 7.503-2.9 7.187-2.576 6.696-2.294 6.268-2.075 6.008-1.894 5.875-1.69 5.725-1.414 5.65-1.077 5.65-.58 5.65-.184 5.847 .103 6.237 .365 6.598 .499 7.083 .499 7.679 .499 8.794 .208 9.762-.365 10.552-.753 11.095-1.217 11.37-1.749 11.37-1.881 11.37-2.043 11.341-2.242 11.283-2.77 11.129-3.323 11.023-3.886 10.97-4.464 10.919-5.381 10.893-6.64 10.893H-12.922C-13.863 10.893-14.492 10.854-14.851 10.773-15.173 10.689-15.436 10.515-15.635 10.254-15.832 9.994-15.93 9.695-15.93 9.365-15.93 8.746-15.602 8.309-15.004 8.131-14.621 8.021-14.503 7.955-14.483 7.942-14.452 7.922-14.394 7.867-14.323 7.724-13.953 6.947-13.766 4.99-13.766 1.908-13.766-.143-13.898-1.793-14.163-2.999-14.219-3.257-14.293-3.445-14.38-3.56-14.464-3.672-14.604-3.77-14.805-3.856-15.321-4.095-15.492-4.24-15.578-4.333-15.733-4.501-15.808-4.74-15.808-5.062-15.808-5.492-15.647-5.844-15.348-6.085-15.063-6.314-14.672-6.431-14.184-6.431H-3.824C-2.973-6.455-2.285-6.514-1.777-6.61-1.46-6.663-1.217-6.687-1.053-6.687-.793-6.687-.571-6.617-.392-6.479-.238-6.36-.065-6.155 .145-5.844 .525-5.251 .85-4.569 1.105-3.819 1.368-3.06 1.502-2.408 1.502-1.883 1.502-1.366 1.368-.927 1.104-.573 .814-.193 .444 0 0 0" fill="#01608a"/>
<path transform="matrix(1,0,0,-1,415.0459,421.70924)" d="M0 0 .136 2.85C.153 3.253 .239 3.393 .273 3.432 .342 3.507 .495 3.548 .709 3.548 1.292 3.548 2.066 3.336 2.066 1.506 2.066 .773 1.929 .245 1.657-.063 1.395-.361 .948-.513 .331-.513 .127-.513 .057-.477 .053-.477 .046-.466 0-.373 0 0M10.848-7.871C10.228-7.691 10.067-7.549 10.033-7.51 9.989-7.46 9.88-7.274 9.79-6.631 9.61-5.277 9.317-4.291 8.888-3.616 8.452-2.934 7.765-2.418 6.848-2.083 6.609-1.997 6.456-1.889 6.456-1.809 6.456-1.771 6.523-1.701 6.67-1.627 7.352-1.292 7.895-.783 8.281-.114 8.669 .547 8.864 1.289 8.864 2.093 8.864 3.54 8.301 4.687 7.193 5.503 6.001 6.379 4.481 6.823 2.678 6.823 2.364 6.823 1.812 6.795 1.027 6.737-.186 6.639-1.155 6.591-1.883 6.591-2.312 6.591-2.625 6.6-2.824 6.614-3.912 6.696-4.593 6.738-4.864 6.738-5.506 6.738-6.002 6.691-6.386 6.592-6.854 6.474-7.23 6.28-7.5 6.019-7.795 5.734-7.944 5.393-7.944 5.002-7.944 4.694-7.856 4.438-7.686 4.239-7.53 4.06-7.261 3.88-6.865 3.692-6.571 3.543-6.386 3.316-6.296 2.997-6.19 2.619-6.136 1.871-6.136 .772-6.136-2.833-6.155-4.861-6.197-5.432-6.254-6.369-6.359-6.804-6.437-7.002-6.541-7.263-6.744-7.494-7.047-7.693-7.412-7.939-7.624-8.114-7.734-8.26-7.865-8.435-7.934-8.658-7.934-8.923-7.934-10.29-6.351-10.953-3.093-10.953-1.427-10.953-.265-10.837 .46-10.601 1.484-10.266 1.699-9.629 1.699-9.155 1.699-8.768 1.544-8.221 .806-7.815 .539-7.664 .446-7.578 .421-7.548 .375-7.497 .337-7.415 .311-7.312 .187-6.757 .123-5.966 .123-4.961 .123-4.076 .199-3.838 .224-3.785 .261-3.705 .409-3.688 .513-3.688 .968-3.711 1.301-3.846 1.532-4.1 1.782-4.375 1.999-4.88 2.174-5.599 2.474-6.835 2.728-7.719 2.949-8.303 3.177-8.9 3.459-9.408 3.789-9.811 4.534-10.724 5.764-11.186 7.445-11.186 8.676-11.186 9.665-11.015 10.394-10.678 10.751-10.509 11.044-10.272 11.268-9.979 11.506-9.668 11.627-9.345 11.627-9.021 11.627-8.762 11.557-8.523 11.416-8.313 11.27-8.095 11.081-7.946 10.848-7.871" fill="#01608a"/>
<path transform="matrix(1,0,0,-1,446.7139,415.17063)" d="M0 0C-.576 .225-1.511 .333-2.861 .333-3.903 .333-7.077 .333-7.077-1.438-7.077-1.908-6.807-2.287-6.27-2.567-6.005-2.701-5.869-2.844-5.869-2.99-5.869-3.045-5.887-3.179-6.003-3.462-6.11-3.719-6.482-4.552-7.124-5.965-7.472-6.73-7.745-7.244-7.94-7.489-8.14-7.742-8.304-7.771-8.411-7.771-8.54-7.771-8.711-7.559-8.866-7.202L-10.395-3.755C-10.563-3.372-10.589-3.188-10.589-3.113-10.589-3.112-10.585-2.987-10.234-2.75-9.722-2.395-9.464-1.986-9.464-1.537-9.464-1.068-9.704-.432-10.856-.061-11.673 .204-12.905 .333-14.621 .333-16.252 .333-17.528 .155-18.417-.195-19.404-.585-19.903-1.172-19.903-1.939-19.903-2.609-19.551-3.042-18.91-3.157-18.56-3.219-18.292-3.339-18.117-3.514-17.981-3.651-17.752-3.967-17.43-4.687L-12.433-15.7C-12.222-16.172-12.038-16.513-11.885-16.714-11.721-16.927-11.5-17.109-11.232-17.255-10.876-17.453-10.471-17.553-10.026-17.553-9.479-17.553-9.015-17.393-8.643-17.079-8.295-16.781-7.951-16.273-7.59-15.528L-1.977-4.17C-1.562-3.32-1.296-3.013-1.147-2.907-1.123-2.889-.959-2.791-.329-2.719 .829-2.571 1.002-1.808 1.002-1.366 1.002-.92 .829-.323 0 0" fill="#01608a"/>
<path transform="matrix(1,0,0,-1,458.0596,418.13993)" d="M0 0C.642 .327 .832 .486 .924 .586 1.093 .766 1.176 1.018 1.176 1.334 1.176 1.944 .843 2.736-.744 3.054-1.583 3.219-2.489 3.302-3.435 3.302-4.496 3.302-5.558 3.198-6.587 2.992-7.493 2.818-8.112 2.624-8.484 2.395-8.914 2.13-9.142 1.747-9.142 1.286-9.142 .986-9.063 .732-8.905 .528-8.765 .35-8.52 .146-8.149-.095-7.784-.324-7.553-.573-7.46-.839-7.264-1.386-7.163-2.698-7.163-4.74-7.163-7.729-7.239-9.703-7.391-10.604-7.447-10.936-7.631-11.193-7.953-11.389-8.572-11.767-8.886-12.203-8.886-12.688-8.886-14.522-5.647-14.522-4.584-14.522-3.012-14.522-1.657-14.39-.558-14.122 .594-13.838 1.176-13.281 1.176-12.468 1.176-12.056 1.003-11.485 .192-11.12-.145-10.952-.282-10.833-.335-10.778-.414-10.692-.478-10.558-.519-10.384-.668-9.671-.744-7.747-.744-4.669-.744-2.854-.685-1.623-.571-1.009-.473-.479-.282-.14 0 0" fill="#01608a"/>
<path transform="matrix(1,0,0,-1,470.459,418.82203)" d="M0 0C.797 0 1.569-.26 2.296-.773 2.59-.983 2.839-1.218 3.04-1.474 3.251-1.745 3.528-2.192 3.866-2.816 4.131-3.313 4.42-3.671 4.724-3.88 5.037-4.096 5.437-4.206 5.917-4.206 6.436-4.206 6.911-4.064 7.329-3.784 8.095-3.267 8.484-2.451 8.484-1.357 8.484 .115 8.066 1.367 7.241 2.363 6.86 2.832 6.403 3.069 5.882 3.069 5.73 3.069 5.586 3.054 5.457 3.024 5.081 2.939 4.901 2.92 4.818 2.92 4.748 2.92 4.514 2.953 3.866 3.258 2.719 3.797 1.513 4.069 .282 4.069-1.027 4.069-2.316 3.798-3.549 3.262-5.164 2.558-6.495 1.526-7.502 .191-8.665-1.349-9.254-3.079-9.254-4.952-9.254-6.561-8.785-8.124-7.859-9.593-6.918-11.109-5.617-12.247-3.995-12.98-2.604-13.609-1.188-13.926 .208-13.926 1.557-13.926 2.867-13.624 4.108-13.026 4.599-12.794 4.988-12.652 5.273-12.599 5.875-12.479 6.256-12.341 6.476-12.164 6.906-11.802 7.28-11.303 7.587-10.677 7.892-10.049 8.045-9.468 8.045-8.949 8.045-8.505 7.92-8.119 7.673-7.796 7.405-7.45 7.075-7.274 6.687-7.274 6.403-7.274 6.086-7.446 5.709-7.804 5.383-8.122 4.914-8.385 4.316-8.586 3.708-8.794 3.082-8.901 2.458-8.901 .769-8.901-.495-8.186-1.403-6.717-2.078-5.609-2.421-4.369-2.421-3.032-2.421-2.093-2.196-1.34-1.754-.794-1.315-.26-.744 0 0 0" fill="#01608a"/>
<path transform="matrix(1,0,0,-1,496.5752,425.9866)" d="M0 0C-.375 0-.687-.109-.924-.324-1.144-.517-1.368-.86-1.618-1.378-1.978-2.134-2.439-2.658-2.993-2.938-3.563-3.228-4.442-3.374-5.611-3.374-6.373-3.374-6.914-3.33-7.218-3.244-7.551-3.152-7.59-3.008-7.605-2.954-7.658-2.77-7.708-2.389-7.757-1.811-7.812-1.217-7.838-.73-7.838-.355-7.838 .389-7.736 .674-7.676 .778-7.649 .825-7.568 .967-7.2 .967-6.403 .967-6.003 .626-5.902-.137-5.837-.653-5.738-.984-5.598-1.172-5.43-1.4-5.149-1.516-4.769-1.516-4.197-1.516-3.753-1.222-3.481-.665-3.061 .196-2.849 1.309-2.849 2.642-2.849 3.311-2.91 3.962-3.032 4.579-3.159 5.229-3.319 5.679-3.521 5.959-3.813 6.355-4.199 6.565-4.633 6.565-4.939 6.565-5.211 6.465-5.432 6.275-5.64 6.107-5.786 5.905-5.867 5.674-5.937 5.475-6.001 5.135-6.06 4.633-6.104 4.256-6.2 4.116-6.253 4.067-6.345 3.982-6.535 3.936-6.784 3.936-7.687 3.936-7.863 4.041-7.881 4.053-7.884 4.054-7.995 4.159-7.995 4.706-7.995 5.933-7.986 6.696-7.965 6.997-7.949 7.246-7.898 7.44-7.822 7.573-7.759 7.678-7.489 7.922-6.382 7.922-5.162 7.922-4.284 7.835-3.774 7.665-3.291 7.503-2.898 7.187-2.575 6.697-2.295 6.271-2.078 6.009-1.892 5.874-1.687 5.725-1.412 5.65-1.075 5.65-.578 5.65-.183 5.847 .104 6.237 .367 6.598 .501 7.083 .501 7.679 .501 8.791 .21 9.759-.364 10.551-.751 11.095-1.216 11.37-1.747 11.37-1.879 11.37-2.041 11.341-2.24 11.283-2.77 11.128-3.326 11.023-3.886 10.97-4.462 10.919-5.379 10.893-6.638 10.893H-12.923C-13.864 10.893-14.492 10.854-14.85 10.773-15.171 10.689-15.434 10.515-15.633 10.254-15.83 9.994-15.929 9.695-15.929 9.365-15.929 8.746-15.6 8.309-15.002 8.131-14.608 8.017-14.497 7.952-14.479 7.939-14.451 7.921-14.392 7.866-14.321 7.724-13.954 6.949-13.766 4.993-13.766 1.908-13.766-.149-13.899-1.801-14.162-2.999-14.217-3.253-14.291-3.442-14.381-3.56-14.464-3.672-14.604-3.77-14.803-3.856-15.326-4.099-15.495-4.244-15.576-4.333-15.731-4.501-15.806-4.74-15.806-5.062-15.806-5.492-15.646-5.844-15.346-6.085-15.062-6.314-14.67-6.431-14.182-6.431H-3.822C-2.971-6.455-2.283-6.514-1.775-6.61-1.458-6.663-1.218-6.687-1.051-6.687-.788-6.687-.567-6.617-.395-6.481-.241-6.363-.066-6.157 .146-5.844 .527-5.251 .852-4.569 1.107-3.818 1.374-3.042 1.504-2.409 1.504-1.883 1.504-1.366 1.37-.927 1.105-.573 .816-.193 .444 0 0 0" fill="#01608a"/>
<path transform="matrix(1,0,0,-1,512.2793,421.738)" d="M0 0C-.499 .24-1.574 .601-3.29 1.107-4.378 1.42-4.93 1.855-4.93 2.401-4.93 2.666-4.838 2.863-4.639 3.022-4.42 3.198-4.126 3.284-3.743 3.284-2.888 3.284-1.99 2.852-1.075 1.998-.361 1.334 .094 .944 .313 .804 .569 .639 .894 .556 1.28 .556 1.765 .556 2.181 .751 2.518 1.136 2.839 1.508 3.004 1.967 3.004 2.5 3.004 3.35 2.678 4.242 2.036 5.152 1.359 6.115 .709 6.583 .046 6.583-.136 6.583-.313 6.552-.478 6.492-.98 6.31-1.097 6.292-1.104 6.29-1.149 6.29-1.239 6.3-1.403 6.351-2.78 6.772-3.923 6.985-4.794 6.985-6.837 6.985-8.592 6.381-10.009 5.191-10.652 4.668-11.158 4.038-11.51 3.319-11.865 2.599-12.044 1.846-12.044 1.082-12.044-.456-11.359-1.843-10.006-3.044-9.457-3.527-8.857-3.929-8.227-4.244-7.601-4.559-6.687-4.905-5.512-5.272-4.895-5.462-4.45-5.667-4.187-5.877-3.969-6.055-3.866-6.244-3.866-6.473-3.866-6.621-3.907-6.843-4.273-7.063-4.597-7.255-5.035-7.353-5.578-7.353-6.232-7.353-6.871-7.21-7.48-6.93-8.08-6.655-8.518-6.31-8.785-5.907-9.431-4.919-9.838-4.341-10.023-4.146-10.37-3.759-10.751-3.564-11.153-3.564-11.557-3.564-11.908-3.741-12.169-4.074-12.379-4.333-12.484-4.705-12.484-5.177-12.484-6.04-12.32-6.937-11.996-7.845-11.654-8.795-11.27-9.406-10.812-9.711-10.258-10.071-9.404-10.371-8.2-10.629-7.024-10.883-5.891-11.01-4.831-11.01-2.43-11.01-.453-10.418 1.049-9.254 2.542-8.095 3.297-6.58 3.297-4.75 3.297-2.663 2.189-1.065 0 0" fill="#01608a"/>
<path transform="matrix(1,0,0,-1,539.9102,425.82743)" d="M0 0C-.337 0-.933-.135-1.141-1.036-1.331-1.822-1.67-2.403-2.147-2.766-2.625-3.129-3.301-3.314-4.157-3.314-4.899-3.314-5.381-3.146-5.582-2.821-5.689-2.642-5.869-2.106-5.869-.538V5.075C-5.869 6.434-5.808 6.974-5.755 7.187-5.698 7.426-5.566 7.582-5.353 7.679-4.605 7.996-4.378 8.166-4.269 8.27-4.071 8.463-3.974 8.741-3.974 9.096-3.974 9.665-4.279 10.411-5.742 10.727-6.55 10.896-7.729 10.979-9.352 10.979-10.786 10.979-11.955 10.837-12.819 10.56-13.949 10.206-14.522 9.649-14.522 8.901-14.522 8.537-14.35 8.218-14.008 7.95-13.895 7.862-13.651 7.715-12.888 7.45-12.648 7.372-12.502 7.259-12.438 7.108-12.391 6.993-12.31 6.683-12.31 5.89-12.303 5.204-12.278 4.184-12.237 2.827-12.195 1.42-12.176 .344-12.176-.402-12.176-2.365-12.255-3.021-12.32-3.228-12.421-3.542-12.659-3.785-13.047-3.969-13.524-4.198-13.8-4.362-13.936-4.502-14.106-4.673-14.192-4.919-14.192-5.232-14.192-5.723-13.962-6.11-13.531-6.354-13.251-6.514-12.811-6.59-12.188-6.59L-3.682-6.588-.928-6.921C-.608-6.921-.326-6.833-.088-6.655 .125-6.494 .354-6.22 .61-5.821 1.39-4.624 1.784-3.476 1.784-2.408 1.784-1.723 1.627-1.152 1.317-.717 .98-.24 .538 0 0 0" fill="#01608a"/>
<path transform="matrix(1,0,0,-1,556.4424,414.71513)" d="M0 0C-.213 0-.458-.036-.735-.108-1.28-.265-1.892-.356-2.544-.379H-8.986C-9.339-.379-9.649-.365-9.921-.333-10.194-.3-10.547-.241-10.968-.156-11.199-.1-11.412-.072-11.603-.072-12.31-.072-13.012-.536-13.69-1.447-14.085-1.975-14.409-2.567-14.651-3.207-14.893-3.846-15.013-4.445-15.013-4.987-15.013-5.576-14.845-6.072-14.51-6.46-14.161-6.862-13.715-7.064-13.181-7.064-12.717-7.064-12.244-6.883-11.777-6.524-11.396-6.231-10.933-5.667-10.359-4.795-10.197-4.548-9.949-4.253-9.695-4.253-9.637-4.253-9.525-4.253-9.431-4.51-9.363-4.698-9.279-5.104-9.279-5.965-9.279-7.006-9.309-8.234-9.365-9.649-9.422-11.063-9.483-12.086-9.547-12.718-9.632-13.562-9.735-13.92-9.805-14.07-9.884-14.238-10.03-14.351-10.252-14.415-11.037-14.653-11.141-14.711-11.199-14.745-11.583-14.989-11.786-15.352-11.786-15.795-11.786-16.323-11.534-17.039-10.337-17.439-9.317-17.79-7.813-17.958-5.733-17.958-4.034-17.958-2.802-17.814-1.966-17.514-.806-17.098-.562-16.408-.562-15.904-.562-15.529-.672-15.225-.889-14.995-1.079-14.793-1.41-14.595-1.896-14.389-2.229-14.25-2.445-14.062-2.56-13.815-2.646-13.626-2.752-13.231-2.752-12.421V-5.574C-2.752-4.921-2.664-4.615-2.592-4.474-2.516-4.326-2.41-4.265-2.227-4.265-2.091-4.265-1.985-4.308-1.887-4.408-1.798-4.497-1.622-4.727-1.305-5.325-.968-5.928-.633-6.35-.278-6.615 .094-6.897 .538-7.041 1.037-7.041 1.562-7.041 2.021-6.897 2.405-6.611 2.918-6.223 3.179-5.614 3.179-4.803 3.179-3.714 2.846-2.64 2.193-1.614 1.513-.543 .774 0 0 0" fill="#01608a"/>
<path transform="matrix(1,0,0,-1,573.8301,424.2991)" d="M0 0C0-3.439-1.063-5.111-3.251-5.111-3.669-5.111-3.973-5.03-4.129-4.879-4.284-4.728-4.365-4.428-4.365-4.011V5.453C-4.365 5.725-4.314 5.916-4.223 6.007-4.168 6.06-4.017 6.149-3.618 6.149-2.278 6.149-1.354 5.611-.797 4.502-.267 3.454 0 1.939 0 0M5.83 5.482C4.98 7.043 3.7 8.168 2.022 8.829 .906 9.267-.619 9.487-2.518 9.487-2.99 9.487-3.382 9.479-3.695 9.461-5.155 9.389-6.467 9.352-7.629 9.352-7.936 9.352-8.428 9.365-9.11 9.389-9.424 9.398-9.695 9.4-9.928 9.4-10.674 9.4-11.271 9.273-11.707 9.022-12.19 8.741-12.445 8.323-12.445 7.813-12.445 7.361-12.263 6.752-11.392 6.426-11.088 6.318-10.893 6.184-10.827 6.04-10.779 5.935-10.695 5.634-10.695 4.805-10.695 3.063-10.722 1.312-10.776-.454-10.829-2.211-10.889-3.395-10.952-3.996-11.028-4.626-11.123-4.856-11.171-4.935-11.243-5.045-11.405-5.135-11.652-5.196-12.058-5.312-12.347-5.468-12.534-5.669-12.742-5.888-12.848-6.186-12.848-6.552-12.848-7.063-12.633-7.483-12.206-7.801-11.808-8.092-11.296-8.241-10.685-8.241-10.525-8.241-10.24-8.224-9.829-8.192-9.203-8.143-8.636-8.118-8.13-8.118H-7.25C-6.501-8.118-5.639-8.134-4.654-8.166L-1.896-8.252C-.755-8.252 .331-8.083 1.336-7.748 3.057-7.175 4.427-6.163 5.409-4.738 5.88-4.041 6.261-3.204 6.539-2.247 6.817-1.294 6.957-.333 6.957 .61 6.957 2.481 6.578 4.121 5.83 5.482" fill="#01608a"/>
</g>
</g>
</svg>
